<?xml version="1.0" standalone="no"?>
<!DOCTYPE svg PUBLIC "-//W3C//DTD SVG 20010904//EN"
 "http://www.w3.org/TR/2001/REC-SVG-20010904/DTD/svg10.dtd">
<svg version="1.0" xmlns="http://www.w3.org/2000/svg"
 width="400.000000pt" height="569.000000pt" viewBox="0 0 400.000000 569.000000"
 preserveAspectRatio="xMidYMid meet">
<metadata>
Created by potrace 1.16, written by Peter Selinger 2001-2019
</metadata>
<g transform="translate(0.000000,569.000000) scale(0.100000,-0.100000)"
fill="#000000" stroke="none">
<path d="M0 5475 c0 -157 3 -215 12 -215 6 0 8 3 5 7 -4 3 43 57 105 119 94
95 114 112 127 102 13 -10 14 -10 4 2 -20 21 -15 32 10 26 12 -3 16 -3 9 0
-10 5 -6 14 14 35 15 15 32 26 37 22 6 -3 7 -1 3 5 -4 7 11 29 38 54 25 22 46
45 46 50 0 4 -92 8 -205 8 l-205 0 0 -215z"/>
<path d="M680 5680 c0 -5 9 -10 20 -10 11 0 20 5 20 10 0 6 -9 10 -20 10 -11
0 -20 -4 -20 -10z"/>
<path d="M832 5674 c-7 -8 -16 -12 -20 -10 -4 3 -7 -10 -7 -27 1 -24 -6 -39
-29 -59 -17 -15 -26 -27 -20 -28 19 0 76 71 70 87 -4 10 -2 13 8 10 10 -4 13
-1 10 7 -4 10 3 14 20 12 14 0 26 -3 26 -6 0 -3 -201 -205 -445 -450 l-445
-445 0 -818 c0 -810 0 -819 20 -824 11 -3 20 -10 20 -15 0 -7 15 -8 37 -5 22
4 46 1 62 -7 14 -8 58 -19 96 -25 39 -6 81 -13 95 -17 14 -3 48 -7 75 -8 29
-1 61 -9 75 -19 13 -9 30 -17 37 -17 24 0 143 -43 143 -51 0 -5 6 -9 14 -9 8
0 28 -11 44 -25 17 -14 34 -25 39 -25 5 0 27 -17 49 -37 22 -21 59 -47 82 -58
23 -11 42 -23 42 -27 0 -5 7 -8 15 -8 8 0 15 -4 15 -10 0 -5 8 -10 18 -10 10
0 28 -9 40 -20 12 -11 26 -20 31 -20 13 0 85 -69 79 -75 -3 -3 -26 6 -52 20
-26 14 -51 25 -56 25 -13 0 -106 64 -110 75 -6 18 -48 45 -79 51 -17 4 -31 10
-31 14 0 4 -10 10 -22 13 -12 4 -19 9 -15 13 10 10 -118 93 -152 99 -42 7
-103 30 -157 59 -37 20 -63 26 -109 26 -63 0 -219 18 -245 28 -8 3 -28 7 -44
9 -16 2 -35 8 -42 14 -12 10 -14 -28 -13 -232 0 -134 3 -238 6 -231 8 20 25
13 18 -8 -3 -11 -2 -20 3 -20 6 0 13 11 16 25 5 18 13 25 32 25 14 0 23 -4 19
-10 -4 -6 -10 -8 -15 -5 -5 3 -12 -5 -16 -19 -6 -26 -30 -41 -39 -26 -18 29
-23 -6 -22 -150 1 -147 2 -160 19 -160 10 0 18 7 18 15 0 8 8 15 18 15 14 0
15 -2 2 -10 -8 -5 -11 -10 -6 -10 5 0 3 -7 -4 -15 -7 -8 -17 -12 -22 -9 -6 4
-14 0 -19 -7 -13 -21 -11 -29 7 -29 14 0 14 -2 0 -15 -14 -14 -15 -137 -16
-1110 l0 -1095 2000 0 2000 0 0 724 c0 718 0 724 -20 729 -11 3 -37 1 -58 -5
-20 -6 -77 -12 -127 -14 -228 -8 -262 -11 -300 -28 -22 -9 -64 -21 -95 -25
-30 -5 -64 -12 -75 -16 -18 -7 -19 -6 -5 8 8 9 38 19 69 22 30 3 68 12 85 21
42 21 58 24 156 30 102 6 111 7 128 18 8 4 48 7 90 5 42 -1 94 -2 115 -1 l37
2 0 234 0 234 -52 7 c-29 4 -64 12 -77 17 -17 6 -31 4 -48 -7 -14 -9 -30 -15
-36 -12 -14 5 -193 -26 -220 -37 -20 -9 -124 1 -132 13 -2 5 -24 7 -47 6 -48
-3 -78 9 -78 29 0 18 -44 46 -73 46 -26 0 -77 21 -77 33 0 4 -13 7 -29 7 -16
0 -34 7 -41 15 -7 8 -17 15 -23 15 -6 0 -18 6 -26 14 -9 7 -29 18 -46 24 -26
9 -27 11 -7 11 12 1 46 -12 75 -28 28 -16 69 -33 90 -36 20 -4 40 -11 43 -16
2 -5 23 -13 45 -19 21 -6 54 -24 73 -40 25 -22 44 -30 73 -30 21 0 44 -5 50
-11 16 -16 93 -31 107 -21 6 5 38 15 71 21 33 6 80 15 105 20 25 5 48 7 53 4
4 -3 24 3 44 12 26 13 47 15 77 10 23 -4 56 -9 74 -12 l32 -5 -2 1858 -3 1859
-23 3 c-13 2 -29 -2 -37 -8 -9 -7 -15 -8 -20 0 -10 16 -3002 14 -3008 -2 -4
-10 -8 -10 -15 1 -8 11 -11 11 -16 0 -5 -11 -7 -11 -12 -1 -7 16 -16 15 -32
-4z m2826 -66 c19 -19 14 -24 -24 -25 -34 -1 -35 0 -18 18 20 22 26 23 42 7z
m-748 -8 c0 -5 -8 -10 -17 -10 -15 0 -16 2 -3 10 19 12 20 12 20 0z m252 -12
c-7 -7 -12 -8 -12 -2 0 14 12 26 19 19 2 -3 -1 -11 -7 -17z m127 8 c-2 -2 -18
-7 -34 -10 l-30 -6 30 14 c26 12 46 14 34 2z m78 -33 c-3 -10 -5 -2 -5 17 0
19 2 27 5 18 2 -10 2 -26 0 -35z m69 -13 c5 -13 7 -12 19 3 10 14 14 15 19 5
3 -7 4 2 1 20 -3 20 -1 31 5 27 6 -3 10 -22 10 -41 0 -31 -3 -34 -29 -34 -17
0 -33 5 -36 10 -4 6 -14 1 -25 -12 -10 -13 -22 -19 -27 -15 -4 5 0 13 10 18 9
6 17 17 17 25 0 8 5 12 10 9 6 -4 11 6 11 22 2 27 2 27 6 3 2 -14 6 -32 9 -40z
m71 13 c-3 -10 -5 -2 -5 17 0 19 2 27 5 18 2 -10 2 -26 0 -35z m-927 22 c0 -8
-4 -15 -10 -15 -5 0 -7 7 -4 15 4 8 8 15 10 15 2 0 4 -7 4 -15z m32 -32 c14
-17 168 -18 168 -2 0 6 9 9 20 6 16 -4 20 0 21 21 1 22 2 23 7 7 5 -20 5 -20
12 0 6 17 7 17 12 -7 3 -15 2 -32 -2 -37 -4 -7 -56 -12 -136 -14 -113 -2 -131
-4 -145 -21 -10 -12 -21 -16 -29 -11 -10 6 -7 11 11 17 18 7 20 11 10 17 -17
11 -4 34 15 27 10 -4 14 3 15 22 1 21 2 22 6 7 3 -11 10 -26 15 -32z m88 37
c0 -5 -4 -10 -10 -10 -5 0 -10 5 -10 10 0 6 5 10 10 10 6 0 10 -4 10 -10z m50
6 c0 -2 -7 -9 -15 -16 -13 -11 -14 -10 -9 4 5 14 24 23 24 12z m285 -6 c-27
-12 -43 -12 -25 0 8 5 22 9 30 9 10 0 8 -3 -5 -9z m315 -23 l0 -33 -72 -2
c-40 -1 -77 -7 -82 -12 -6 -6 -19 -10 -30 -10 -19 1 -19 1 -3 11 9 5 17 16 17
23 0 10 10 11 42 6 30 -6 51 -4 69 5 20 11 29 11 38 2 8 -8 11 -4 11 16 0 15
2 27 5 27 3 0 5 -15 5 -33z m326 3 c16 0 74 -58 74 -73 0 -5 -25 -33 -55 -63
-63 -62 -61 -62 -134 18 l-44 48 38 37 37 38 -6 -35 -5 -35 11 32 c10 32 30
44 56 37 8 -2 20 -4 28 -4z m-1136 -14 c0 -7 -8 -16 -17 -20 -10 -3 -24 -9
-31 -12 -10 -4 -9 2 3 20 18 28 45 35 45 12z m368 -2 c13 -14 32 -16 111 -11
53 3 106 8 119 11 16 3 22 1 19 -7 -3 -9 -42 -12 -140 -12 -134 0 -155 4 -142
24 8 15 14 14 33 -5z m137 -44 c3 -5 -3 -10 -14 -10 -12 0 -21 5 -21 10 0 6 6
10 14 10 8 0 18 -4 21 -10z m-88 -82 c-2 -13 -4 -3 -4 22 0 25 2 35 4 23 2
-13 2 -33 0 -45z m51 44 c-12 -2 -18 -13 -18 -33 0 -16 -4 -29 -10 -29 -14 0
-13 53 1 67 6 6 19 9 28 5 14 -6 14 -7 -1 -10z m212 3 c0 -8 6 -14 12 -12 7 1
14 -8 16 -20 2 -13 -1 -23 -6 -23 -6 0 -17 -3 -26 -6 -13 -5 -16 2 -16 35 0
23 5 41 10 41 6 0 10 -7 10 -15z m47 -37 c-2 -13 -4 -5 -4 17 -1 22 1 32 4 23
2 -10 2 -28 0 -40z m44 -15 c7 -8 5 -10 -9 -6 -18 4 -19 13 -11 63 1 8 4 2 6
-15 3 -16 9 -35 14 -42z m44 -1 c-7 -7 -37 10 -42 25 -2 5 3 10 11 10 8 0 13
-4 10 -8 -2 -4 0 -10 6 -14 6 -4 11 7 12 27 l1 33 4 -33 c3 -19 2 -37 -2 -40z
m-831 11 c5 -14 3 -23 -3 -23 -6 0 -11 7 -11 15 0 21 -20 19 -21 -2 0 -10 -3
-13 -5 -7 -3 6 0 24 6 40 12 31 19 26 34 -23z m116 37 c0 -5 7 -10 15 -10 9 0
15 -9 14 -22 -1 -17 -2 -19 -6 -5 -6 23 -23 22 -23 -3 0 -11 -4 -20 -10 -20
-5 0 -10 16 -10 35 0 19 5 35 10 35 6 0 10 -4 10 -10z m108 -18 c13 11 14 11
8 0 -4 -7 -3 -19 4 -26 8 -11 6 -14 -14 -12 -13 0 -22 4 -20 7 2 4 -3 12 -11
19 -8 7 -15 20 -15 28 0 12 4 11 16 -6 13 -19 18 -21 32 -10z m-8 18 c0 -5 -4
-10 -10 -10 -5 0 -10 5 -10 10 0 6 5 10 10 10 6 0 10 -4 10 -10z m189 -27 c-1
-38 -1 -38 -9 -9 -8 27 -6 46 6 46 2 0 4 -17 3 -37z m191 7 c0 -16 -4 -30 -10
-30 -5 0 -10 14 -10 30 0 17 5 30 10 30 6 0 10 -13 10 -30z m38 2 c4 -29 19
-28 25 1 4 19 4 18 6 -5 1 -22 -4 -28 -19 -28 -11 0 -20 7 -20 15 0 8 -4 15
-10 15 -5 0 -10 7 -10 16 0 23 24 11 28 -14z m-256 -7 c3 -14 1 -28 -3 -31 -5
-3 -9 9 -9 25 0 38 6 40 12 6z m488 14 c0 -5 5 -7 10 -4 6 3 10 -1 10 -9 0
-25 38 -19 43 7 4 19 4 18 6 -6 1 -26 -1 -28 -39 -25 -22 1 -40 5 -40 9 0 4
-3 14 -6 23 -3 9 -1 16 5 16 6 0 11 -5 11 -11z m45 1 c3 -5 1 -10 -4 -10 -6 0
-11 5 -11 10 0 6 2 10 4 10 3 0 8 -4 11 -10z m66 1 c0 8 4 5 8 -6 5 -11 7 -23
4 -27 -5 -9 -43 23 -43 35 0 5 7 4 15 -3 12 -10 15 -10 16 1z m-911 -26 c0
-14 -5 -25 -10 -25 -6 0 -10 6 -8 13 2 6 -2 13 -7 15 -6 1 -10 -2 -10 -7 0 -5
-3 -13 -7 -17 -5 -4 -8 5 -8 19 0 22 5 27 25 27 20 0 25 -5 25 -25z m17 -12
c-3 -10 -5 -4 -5 12 0 17 2 24 5 18 2 -7 2 -21 0 -30z m210 24 c11 4 14 2 9
-5 -4 -7 -2 -12 3 -12 6 0 11 -4 11 -9 0 -5 -11 -8 -25 -7 -20 1 -25 6 -24 26
0 14 3 20 5 13 3 -7 12 -9 21 -6z m63 -6 c0 -11 -4 -23 -10 -26 -6 -4 -10 5
-10 19 0 14 5 26 10 26 6 0 10 -9 10 -19z m140 -8 c0 -14 -3 -23 -7 -19 -10
10 -11 46 -1 46 4 0 8 -12 8 -27z m31 -3 c6 0 7 -5 4 -10 -10 -16 -25 -1 -24
23 1 17 2 18 6 5 2 -10 9 -18 14 -18z m617 -591 c-7 -4 -17 -5 -22 -1 -16 9
-66 10 -72 0 -3 -4 -9 -8 -15 -8 -5 0 3 18 17 40 l26 39 39 -31 c27 -22 35
-34 27 -39z m-2870 49 c18 -18 15 -27 -8 -23 -20 4 -28 -9 -11 -19 5 -4 11 0
14 6 3 7 4 3 4 -9 -1 -18 -6 -21 -27 -18 -20 4 -21 4 -6 -3 14 -6 16 -11 8
-16 -7 -4 -22 0 -34 8 -12 9 -17 16 -10 16 6 0 12 5 12 11 0 12 32 58 41 59 3
0 10 -5 17 -12z m892 -36 c0 -4 -9 -8 -19 -8 -15 0 -17 3 -9 13 10 12 28 9 28
-5z m-851 -1 c11 -7 9 -15 -10 -40 -23 -31 -43 -39 -54 -22 -3 5 -1 12 5 16 5
3 10 1 10 -5 0 -7 5 -6 14 2 8 7 12 16 9 21 -2 4 2 7 9 8 10 0 10 2 1 6 -14 5
-18 23 -5 23 4 0 13 -4 21 -9z m2206 -11 c3 -5 1 -10 -4 -10 -6 0 -11 5 -11
10 0 6 2 10 4 10 3 0 8 -4 11 -10z m-1360 -20 c4 -6 1 -9 -7 -8 -18 4 -22 -38
-4 -45 15 -6 43 28 38 46 -1 4 2 7 7 7 20 0 18 -16 -5 -44 l-25 -28 -34 23
c-37 26 -42 34 -23 45 7 4 8 3 4 -4 -11 -17 9 -15 24 3 15 18 17 18 25 5z
m-515 -52 c0 -5 7 -7 16 -4 8 3 13 2 10 -2 -2 -4 6 -8 17 -10 12 -1 31 -3 42
-5 11 -1 20 3 20 8 0 6 -12 10 -27 10 -35 1 -42 9 -28 34 10 19 13 20 26 6 9
-8 24 -20 35 -25 25 -14 24 -24 -8 -60 l-28 -30 -34 30 -35 31 -19 -31 -19
-30 -38 27 -38 28 26 36 27 37 27 -20 c16 -11 28 -24 28 -30z m360 -10 c0 -4
-10 -19 -23 -34 -21 -24 -26 -25 -47 -14 -14 7 -30 19 -37 26 -15 15 -7 44 12
44 7 0 15 9 18 21 5 20 7 20 41 -8 20 -15 36 -31 36 -35z m1060 42 c27 -21 21
-27 -11 -10 -14 8 -19 7 -19 -2 0 -9 -3 -9 -9 2 -10 14 -6 30 7 30 4 0 18 -9
32 -20z m1035 4 c9 3 13 2 10 -4 -10 -15 -31 -12 -46 8 -13 15 -12 16 3 3 10
-7 25 -11 33 -7z m-1645 -20 c0 -14 -4 -23 -9 -20 -5 3 -7 15 -4 26 7 28 13
25 13 -6z m1130 10 c0 -2 -9 -4 -21 -4 -11 0 -18 4 -14 10 5 8 35 3 35 -6z
m-100 -5 c-11 -8 -12 -12 -2 -16 6 -2 12 -9 12 -14 0 -5 -9 -4 -19 3 -15 9
-17 15 -9 25 6 7 16 13 22 13 6 0 4 -5 -4 -11z m-570 -20 c12 -8 10 -9 -7 -4
-29 8 -29 -2 -1 -25 23 -18 53 -16 41 3 -3 5 -1 7 5 3 5 -3 13 0 15 6 3 8 6 8
6 2 1 -6 -8 -19 -19 -29 -18 -16 -20 -16 -55 5 -35 22 -41 31 -28 43 9 10 26
8 43 -4z m99 -2 c9 3 12 1 6 -4 -5 -4 -13 -12 -17 -16 -3 -5 -12 2 -18 15 -10
18 -10 21 0 11 7 -6 20 -9 29 -6z m91 3 c0 -5 -5 -10 -11 -10 -5 0 -7 5 -4 10
3 6 8 10 11 10 2 0 4 -4 4 -10z m470 6 c0 -3 -4 -8 -10 -11 -5 -3 -10 -1 -10
4 0 6 5 11 10 11 6 0 10 -2 10 -4z m465 -17 c-10 -15 -25 -10 -19 6 4 8 10 12
15 9 5 -3 7 -10 4 -15z m175 -39 c-1 -8 -48 -60 -55 -60 -4 0 -19 8 -33 18
-40 28 -60 33 -58 15 0 -8 -7 -20 -16 -26 -14 -9 -23 -6 -48 18 -27 25 -28 31
-16 44 12 12 18 12 31 1 9 -7 13 -21 10 -31 -7 -20 -5 -22 18 -13 9 3 13 16
11 34 -3 22 0 28 11 24 8 -3 11 -12 8 -22 -6 -14 -5 -14 16 0 13 9 29 26 37
37 l15 21 35 -28 c18 -15 34 -29 34 -32z m-2976 23 l29 -27 23 27 c22 26 44
35 44 19 0 -4 13 -16 30 -25 26 -16 28 -19 15 -35 -8 -9 -21 -26 -28 -36 -14
-19 -14 -19 -40 0 -24 18 -39 43 -17 29 5 -3 20 1 33 10 13 8 27 12 31 8 4 -4
4 0 0 10 -5 13 -10 15 -20 6 -7 -6 -19 -7 -25 -3 -9 5 -10 2 -6 -9 3 -10 2
-17 -3 -17 -6 0 -10 5 -10 10 0 11 -16 0 -53 -37 l-22 -23 -38 26 c-39 26 -39
32 -3 71 26 28 25 28 60 -4z m1188 -5 c-7 -7 -12 -8 -12 -2 0 14 12 26 19 19
2 -3 -1 -11 -7 -17z m38 -128 c3 -71 2 -126 -2 -122 -4 4 -8 64 -10 134 -2 70
-1 125 2 122 3 -3 7 -64 10 -134z m620 131 c0 -17 -26 -30 -48 -24 -33 8 -27
21 9 17 18 -2 28 0 24 6 -3 6 -1 10 4 10 6 0 11 -4 11 -9z m-818 -18 c20 -23
38 -59 49 -95 7 -26 6 -28 -7 -18 -8 7 -13 18 -12 24 1 6 -6 26 -16 45 -14 26
-20 31 -27 20 -6 -10 -9 -10 -9 -1 0 22 -38 13 -59 -15 -12 -14 -23 -24 -26
-21 -9 9 50 65 64 60 8 -3 11 0 7 7 -11 18 19 13 36 -6z m148 -29 c0 -8 -4
-12 -10 -9 -5 3 -10 -2 -11 -12 0 -11 -3 -13 -6 -5 -3 7 1 19 7 27 16 19 20
19 20 -1z m17 -16 c-3 -7 -5 -2 -5 12 0 14 2 19 5 13 2 -7 2 -19 0 -25z m208
22 c3 -5 -1 -10 -9 -10 -9 0 -16 5 -16 10 0 6 4 10 9 10 6 0 13 -4 16 -10z
m-425 -31 c0 -6 7 -9 15 -5 8 3 15 1 15 -4 0 -14 -18 -21 -25 -9 -4 5 -13 8
-21 5 -14 -6 -19 6 -7 17 10 11 23 8 23 -4z m60 -10 c0 -6 -4 -7 -10 -4 -5 3
-10 11 -10 16 0 6 5 7 10 4 6 -3 10 -11 10 -16z m774 -28 c-2 -3 -10 4 -18 14
-8 12 -18 15 -27 10 -12 -8 -12 -6 0 8 12 15 15 15 31 -6 10 -12 16 -24 14
-26z m563 9 c7 -14 12 -41 12 -60 l-1 -35 -10 43 c-5 23 -13 40 -18 37 -4 -3
-6 4 -3 15 4 14 0 20 -11 20 -10 0 -15 -4 -12 -8 2 -4 -4 -8 -15 -8 -19 0 -19
1 -2 13 24 18 45 12 60 -17z m-1907 -82 c0 -54 3 -68 15 -68 8 0 15 -6 16 -12
0 -10 2 -10 6 0 3 8 31 12 89 12 l84 0 -1 -27 c-1 -17 -3 -21 -6 -10 -2 9 -10
17 -18 17 -7 0 -16 -8 -20 -17 -6 -17 -7 -17 -20 0 -7 10 -16 14 -19 9 -7 -12
-86 -20 -86 -9 0 4 -4 5 -10 2 -5 -3 -10 -13 -10 -20 0 -11 8 -13 30 -9 16 4
37 3 47 0 15 -6 15 -8 3 -16 -12 -8 -11 -10 6 -10 11 0 26 6 33 13 11 10 14
10 18 0 6 -17 18 -16 37 3 15 14 16 14 16 -1 0 -9 -9 -19 -20 -22 -11 -3 -20
-10 -20 -17 0 -6 -7 -2 -16 9 -9 12 -18 16 -22 10 -10 -15 -68 -13 -65 3 2 6
-2 12 -7 12 -5 0 -10 -9 -10 -19 0 -11 -6 -22 -12 -24 -7 -3 22 -6 66 -6 69
-1 81 2 97 21 22 24 26 11 6 -17 -12 -16 -29 -18 -127 -18 -104 1 -116 3 -131
22 -20 25 -29 27 -29 7 0 -8 -15 -19 -32 -25 -41 -13 -209 -12 -225 1 -9 7
-13 7 -13 -1 0 -6 -20 -10 -51 -10 -38 1 -49 5 -45 15 7 18 -8 18 -23 1 -13
-17 -121 -23 -121 -7 0 5 19 11 43 12 l42 1 -37 4 c-24 3 -46 -2 -60 -11 -27
-19 -78 -21 -78 -3 0 6 -13 -15 -29 -48 -35 -75 -55 -93 -122 -111 -72 -19
-95 -18 -144 6 -49 24 -65 53 -65 120 0 53 36 143 53 133 6 -3 7 -1 3 5 -7 12
39 82 54 82 4 0 -3 -21 -16 -47 -31 -60 -32 -130 -3 -167 19 -24 26 -26 104
-26 46 0 86 4 89 8 13 21 -25 50 -75 57 -32 4 -49 11 -46 19 3 6 13 30 23 54
l19 42 111 0 112 0 34 67 c25 52 34 62 36 44 2 -12 -1 -36 -7 -53 -18 -52 -15
-58 34 -58 41 0 45 2 45 24 0 13 7 29 15 36 9 8 15 9 15 2 0 -6 -4 -14 -10
-17 -5 -3 -10 -14 -10 -23 0 -13 3 -12 15 5 8 12 14 36 13 54 -2 18 2 34 9 36
20 7 1 -104 -21 -120 -7 -6 -4 -7 7 -3 10 3 30 6 43 6 20 0 24 5 24 29 0 17 5
33 10 36 6 3 10 1 10 -5 0 -6 5 -8 11 -4 8 5 7 9 -1 14 -14 9 -6 40 10 40 6 0
10 -24 10 -55 0 -30 -4 -55 -9 -55 -5 0 -8 8 -6 18 1 9 0 11 -2 5 -3 -7 -8
-13 -12 -13 -4 0 -8 -6 -8 -14 0 -7 7 -13 16 -12 9 1 16 -4 16 -11 0 -6 3 -14
7 -18 4 -4 4 -13 1 -21 -3 -8 -1 -14 5 -14 6 0 18 -3 28 -7 10 -3 15 -2 12 3
-4 5 13 7 40 4 l47 -5 -42 -3 c-24 -2 -43 -7 -43 -12 0 -5 -7 -6 -17 -3 -11 4
-14 3 -9 -5 5 -8 38 -11 99 -10 l92 2 -75 6 c-54 4 -65 7 -41 10 23 3 35 11
37 23 1 9 -2 15 -7 11 -5 -3 -9 4 -9 15 0 11 8 21 18 23 12 3 9 6 -10 10 -25
5 -27 3 -22 -18 4 -14 2 -24 -4 -24 -6 0 -12 10 -14 23 -4 23 -5 23 -51 12
-21 -6 -27 -4 -27 9 0 14 16 16 110 16 77 0 110 -3 110 -12 0 -6 3 -8 7 -5 4
4 6 29 4 56 -2 41 3 53 31 88 40 49 48 41 48 -49z m467 71 c4 -12 17 -22 35
-26 26 -5 28 -7 12 -16 -14 -8 -22 -5 -40 16 l-22 25 -11 -24 c-16 -36 -14
-42 14 -36 14 2 25 0 25 -6 0 -6 -9 -8 -20 -5 -27 7 -25 -12 2 -31 12 -9 17
-16 11 -16 -17 0 -53 40 -53 59 0 24 23 81 33 81 5 0 11 -9 14 -21z m1663 1
c0 -13 -5 -18 -15 -14 -12 5 -13 10 -4 20 15 19 19 18 19 -6z m-1840 -65 l0
-75 146 0 c90 0 143 -4 139 -10 -3 -5 -47 -8 -100 -6 l-95 4 -1 -27 c-2 -23
-2 -24 -6 -3 -4 18 -11 22 -43 22 -30 0 -40 4 -45 21 -4 12 -12 18 -21 15 -8
-3 -14 1 -14 9 0 8 7 15 15 15 24 0 19 45 -5 47 -17 2 -20 -4 -20 -38 0 -24
-4 -38 -10 -34 -25 15 -6 93 23 93 5 0 12 4 15 8 4 4 1 4 -5 0 -7 -4 -13 -4
-13 -1 0 9 24 34 33 35 4 0 7 -34 7 -75z m986 31 c-8 -20 -15 -39 -16 -41 -6
-44 -14 -65 -20 -54 -5 8 -12 -2 -19 -27 -13 -46 -14 -64 -3 -64 4 0 13 -9 20
-20 15 -25 11 -25 -18 0 -33 29 -25 64 53 227 17 37 20 19 3 -21z m-372 21
c-2 -7 7 -19 21 -27 14 -7 25 -20 24 -29 0 -12 -4 -10 -16 7 -8 12 -22 22 -29
22 -8 0 -14 9 -14 20 0 11 4 20 10 20 5 0 7 -6 4 -13z m916 9 c0 -2 -8 -10
-17 -17 -16 -13 -17 -12 -4 4 13 16 21 21 21 13z m-435 -36 c19 -37 19 -91 0
-137 -22 -52 -28 -35 -8 20 16 43 16 50 1 97 -18 56 -16 64 7 20z m926 -32
c-20 -57 -15 -68 29 -68 34 0 40 3 40 20 0 20 36 100 45 100 12 0 -9 -96 -23
-107 -13 -11 -9 -13 26 -13 33 0 40 3 36 15 -6 16 28 99 45 109 5 4 10 -30 10
-81 1 -101 -20 -183 -47 -183 -15 0 -15 2 -2 10 8 5 11 10 5 10 -5 0 -21 3
-35 6 -24 5 -24 5 -6 -10 19 -15 18 -16 -16 -16 -36 0 -56 20 -42 42 3 5 -3
12 -15 15 -11 3 -19 9 -16 13 3 5 1 19 -4 32 -9 21 -10 21 -11 3 -1 -18 -2
-18 -11 3 -5 13 -13 20 -19 17 -10 -6 -15 21 -11 60 2 28 -16 6 -22 -25 -4
-21 -4 -20 -6 8 0 17 4 32 9 32 6 0 10 6 10 13 0 7 8 24 17 37 15 22 18 23 21
7 2 -10 -1 -32 -7 -49z m-1614 30 c-3 -8 -6 -5 -6 6 -1 11 2 17 5 13 3 -3 4
-12 1 -19z m310 -10 c-3 -8 -6 -5 -6 6 -1 11 2 17 5 13 3 -3 4 -12 1 -19z
m537 7 c-4 -8 -11 -15 -16 -15 -6 0 -5 6 2 15 7 8 14 15 16 15 2 0 1 -7 -2
-15z m538 -32 c-5 -64 -22 -81 -22 -22 0 34 12 69 25 69 0 0 -1 -21 -3 -47z
m48 30 c0 -10 -5 -25 -10 -33 -8 -11 -9 -7 -4 15 7 28 6 29 -12 15 -18 -14
-18 -14 -5 3 7 9 17 17 22 17 5 0 9 -8 9 -17z m-798 -7 c7 4 8 2 4 -5 -9 -13
-26 -5 -25 12 0 9 2 8 6 -1 2 -6 10 -9 15 -6z m435 -13 c-8 -16 -16 -35 -19
-43 -2 -8 -7 -10 -10 -4 -4 5 3 24 14 42 25 39 34 42 15 5z m-97 -73 c44 0 59
3 54 12 -5 7 -3 8 5 3 21 -12 -3 -27 -53 -32 -36 -4 -51 -2 -66 12 -11 10 -20
14 -20 9 0 -10 -40 74 -40 84 0 3 13 -15 30 -41 l30 -47 60 0z m130 75 c0 -8
-4 -15 -10 -15 -5 0 -7 7 -4 15 4 8 8 15 10 15 2 0 4 -7 4 -15z m-1259 -28
c-16 -16 -25 -1 -10 16 8 8 16 11 18 5 2 -5 -2 -15 -8 -21z m39 5 c0 -15 -2
-15 -10 -2 -13 20 -13 33 0 25 6 -3 10 -14 10 -23z m124 13 c3 -8 1 -15 -4
-15 -6 0 -10 7 -10 15 0 8 2 15 4 15 2 0 6 -7 10 -15z m1156 5 c8 -5 12 -11
10 -14 -3 -2 -14 2 -24 10 -22 15 -10 19 14 4z m-1230 -54 c0 -30 -4 -57 -8
-60 -4 -2 -8 22 -7 55 0 32 3 59 8 59 4 0 7 -24 7 -54z m389 -23 c0 -43 -3
-70 -7 -61 -7 17 -4 138 4 138 2 0 4 -35 3 -77z m301 62 c7 -8 9 -15 6 -15 -4
0 -14 7 -22 15 -9 8 -11 15 -6 15 5 0 15 -7 22 -15z m196 -20 c-4 -34 -16 -44
-16 -13 0 21 7 38 16 38 1 0 1 -11 0 -25z m-532 -25 c-6 -5 -24 21 -24 34 0 6
6 1 14 -10 8 -10 12 -21 10 -24z m917 18 c-5 -13 -14 -22 -20 -20 -6 1 -11 -2
-11 -8 0 -12 -50 -13 -69 -1 -8 5 1 8 25 7 29 -1 39 3 39 14 0 17 14 30 32 30
9 0 10 -7 4 -22z m-1309 -10 c-7 -7 -12 -8 -12 -2 0 14 12 26 19 19 2 -3 -1
-11 -7 -17z m1594 -18 c30 0 54 -4 54 -8 0 -13 -93 -12 -107 0 -7 6 -12 20
-12 32 2 20 2 20 6 -1 4 -21 10 -23 59 -23z m-836 20 c0 -5 -2 -10 -4 -10 -3
0 -8 5 -11 10 -3 6 -1 10 4 10 6 0 11 -4 11 -10z m-1087 -107 c6 2 14 14 18
28 l7 24 1 -24 c1 -18 5 -22 21 -18 11 3 18 1 15 -3 -3 -5 -1 -11 5 -15 15 -9
12 -25 -5 -25 -8 0 -15 7 -15 15 0 29 -33 12 -38 -20 l-4 -20 17 20 c9 11 14
14 10 8 -5 -10 14 -13 76 -13 110 0 97 -8 -20 -12 l-95 -3 -17 30 c-13 22 -16
41 -11 75 l6 45 9 -48 c5 -27 14 -46 20 -44z m664 80 c-20 -2 -52 -2 -70 0
-17 2 0 4 38 4 39 0 53 -2 32 -4z m617 -30 c9 -18 14 -33 12 -33 -6 0 -36 55
-36 66 0 11 5 3 24 -33z m426 33 c0 -8 -51 -13 -56 -5 -3 5 9 9 25 9 17 0 31
-2 31 -4z m80 -4 c0 -12 -58 -13 -65 -1 -4 5 10 9 29 9 20 0 36 -4 36 -8z
m-1314 -104 c-19 -31 -26 -37 -26 -23 0 11 9 28 20 38 12 10 21 31 21 49 2 30
2 31 6 6 3 -18 -5 -43 -21 -70z m-406 72 c0 -5 -4 -10 -10 -10 -5 0 -10 5 -10
10 0 6 5 10 10 10 6 0 10 -4 10 -10z m167 -12 c-3 -8 -6 -5 -6 6 -1 11 2 17 5
13 3 -3 4 -12 1 -19z m1800 -25 c-3 -10 -5 -2 -5 17 0 19 2 27 5 18 2 -10 2
-26 0 -35z m-2552 27 c-3 -5 -1 -10 4 -10 6 0 11 -4 11 -10 0 -5 -7 -7 -15 -4
-17 7 -21 34 -4 34 5 0 7 -4 4 -10z m1608 -45 c-7 -21 -12 -19 -10 4 0 11 5
18 9 15 4 -3 5 -11 1 -19z m677 15 c0 -5 -2 -10 -4 -10 -3 0 -8 5 -11 10 -3 6
-1 10 4 10 6 0 11 -4 11 -10z m-1610 -10 c0 -5 -4 -10 -10 -10 -5 0 -10 5 -10
10 0 6 5 10 10 10 6 0 10 -4 10 -10z m1137 -12 c-3 -8 -6 -5 -6 6 -1 11 2 17
5 13 3 -3 4 -12 1 -19z m541 5 c-2 -11 2 -17 10 -15 8 1 11 -2 7 -9 -5 -7 13
-10 63 -7 39 1 68 0 65 -4 -2 -5 -35 -8 -72 -8 -72 0 -99 14 -87 45 8 21 18
19 14 -2z m-1591 1 c-3 -3 -12 -4 -19 -1 -8 3 -5 6 6 6 11 1 17 -2 13 -5z
m110 -16 c-3 -8 -6 -5 -6 6 -1 11 2 17 5 13 3 -3 4 -12 1 -19z m394 -1 c-10
-9 -11 -8 -5 6 3 10 9 15 12 12 3 -3 0 -11 -7 -18z m1044 3 c8 -13 -5 -13 -25
0 -13 8 -13 10 2 10 9 0 20 -4 23 -10z m288 3 c-13 -2 -33 -2 -45 0 -13 2 -3
4 22 4 25 0 35 -2 23 -4z m-1820 -10 c-7 -2 -19 -2 -25 0 -7 3 -2 5 12 5 14 0
19 -2 13 -5z m304 -15 c-3 -8 -6 -5 -6 6 -1 11 2 17 5 13 3 -3 4 -12 1 -19z
m413 2 c13 -8 13 -10 -2 -10 -9 0 -20 5 -23 10 -8 13 5 13 25 0z m60 0 c-8 -5
-22 -9 -30 -9 -10 0 -8 3 5 9 27 12 43 12 25 0z m370 0 c-33 -11 -60 -12 -60
-2 0 4 19 8 43 8 34 2 37 0 17 -6z m610 0 c0 -5 -5 -10 -11 -10 -5 0 -7 5 -4
10 3 6 8 10 11 10 2 0 4 -4 4 -10z m80 0 c0 -5 -17 -10 -37 -9 -34 1 -35 2
-13 9 36 11 50 11 50 0z m-1840 -10 c0 -5 -11 -10 -25 -10 -14 0 -25 5 -25 10
0 6 11 10 25 10 14 0 25 -4 25 -10z m37 4 c-3 -3 -12 -4 -19 -1 -8 3 -5 6 6 6
11 1 17 -2 13 -5z m53 -4 c0 -5 -7 -7 -15 -4 -8 4 -15 8 -15 10 0 2 7 4 15 4
8 0 15 -4 15 -10z m270 6 c0 -2 -9 -6 -20 -9 -11 -3 -18 -1 -14 4 5 9 34 13
34 5z m97 -2 c-3 -3 -12 -4 -19 -1 -8 3 -5 6 6 6 11 1 17 -2 13 -5z m610 -16
c-3 -8 -6 -5 -6 6 -1 11 2 17 5 13 3 -3 4 -12 1 -19z m186 15 c-13 -2 -35 -2
-50 0 -16 2 -5 4 22 4 28 0 40 -2 28 -4z m100 0 c-7 -2 -21 -2 -30 0 -10 3 -4
5 12 5 17 0 24 -2 18 -5z m95 0 c-16 -2 -40 -2 -55 0 -16 2 -3 4 27 4 30 0 43
-2 28 -4z m65 0 c-7 -2 -19 -2 -25 0 -7 3 -2 5 12 5 14 0 19 -2 13 -5z m-533
-47 c0 -3 -4 -8 -10 -11 -5 -3 -10 -1 -10 4 0 6 5 11 10 11 6 0 10 -2 10 -4z
m666 -43 c-7 -7 -26 7 -26 19 0 6 6 6 15 -2 9 -7 13 -15 11 -17z m-620 -10
c-8 -16 -25 -38 -39 -51 -24 -22 -25 -23 -66 -6 -22 9 -41 20 -41 25 0 5 18 0
40 -11 44 -22 54 -25 45 -10 -3 6 -1 10 5 10 14 0 33 19 49 48 6 12 14 22 17
22 2 0 -2 -12 -10 -27z m494 15 c0 7 4 11 10 7 5 -3 1 -14 -10 -25 -11 -11
-16 -26 -13 -39 6 -24 -8 -27 -36 -9 -16 10 -17 14 -6 25 8 7 18 13 24 13 5 0
13 5 17 12 5 8 2 9 -11 4 -15 -5 -16 -4 -5 9 11 13 15 13 21 3 7 -11 9 -11 9
0z m-650 -2 c0 -2 -9 -6 -20 -9 -11 -3 -20 -1 -20 4 0 5 9 9 20 9 11 0 20 -2
20 -4z m50 -4 c0 -4 -9 -8 -19 -8 -11 0 -17 4 -15 8 3 4 12 8 20 8 8 0 14 -4
14 -8z m700 -20 c0 -15 -2 -15 -10 -2 -13 20 -13 33 0 25 6 -3 10 -14 10 -23z
m-665 9 c-3 -5 2 -12 10 -14 12 -4 12 -5 -1 -3 -19 1 -32 26 -14 26 6 0 9 -4
5 -9z m732 -17 c1 -5 -10 -24 -25 -42 -26 -32 -29 -33 -43 -16 -12 16 -12 17
2 12 24 -9 67 41 48 54 -12 8 -11 9 0 6 8 -3 16 -8 18 -14z m-150 -16 c-3 -8
-6 -5 -6 6 -1 11 2 17 5 13 3 -3 4 -12 1 -19z m68 -8 c-3 -5 -12 -10 -18 -10
-7 0 -6 4 3 10 19 12 23 12 15 0z m30 0 c3 -5 1 -10 -4 -10 -6 0 -11 5 -11 10
0 6 2 10 4 10 3 0 8 -4 11 -10z m-1443 -37 c-3 -28 0 -33 18 -33 18 0 21 5 18
33 -2 26 0 32 17 32 18 0 20 -7 20 -85 0 -73 -2 -85 -17 -88 -15 -3 -18 4 -18
32 0 29 -4 36 -20 36 -16 0 -20 -7 -20 -35 0 -29 -4 -35 -21 -35 -19 0 -20 5
-17 73 3 66 1 73 -14 69 -15 -4 -18 -16 -18 -73 0 -62 -2 -69 -20 -69 -18 0
-20 7 -20 70 0 54 -3 70 -14 70 -8 0 -18 5 -21 10 -14 23 9 31 78 28 l72 -3
-3 -32z m196 20 c-2 -13 -12 -17 -31 -16 -21 2 -27 -2 -27 -17 0 -15 7 -20 26
-20 33 0 30 -33 -4 -38 -14 -2 -22 -10 -22 -23 0 -16 6 -20 27 -17 20 2 29 -2
31 -14 3 -15 -4 -18 -47 -18 l-51 0 0 90 0 90 51 0 c43 0 50 -3 47 -17z m1162
-2 c0 -5 -7 -14 -15 -21 -12 -10 -15 -10 -15 2 0 8 3 18 7 21 9 10 23 9 23 -2z
m-2937 -47 l22 27 28 -30 28 -30 -22 -30 -22 -30 -25 19 c-32 25 -47 25 -66
-1 -11 -16 -17 -19 -28 -10 -7 7 -22 18 -33 25 -19 14 -19 14 5 49 l24 35 34
-26 33 -25 22 27z m2394 -144 c49 -17 93 -94 93 -162 0 -28 -1 -29 -47 -26
-46 3 -48 5 -53 35 -6 36 -33 73 -53 73 -27 0 -48 -39 -57 -101 -11 -77 -3
-175 16 -206 29 -46 94 -15 94 44 0 30 13 36 60 28 45 -8 49 -19 28 -87 -13
-42 -64 -94 -103 -104 -69 -17 -145 19 -179 85 -60 115 -33 351 46 401 50 32
100 39 155 20z m233 -247 l0 -253 -52 0 -53 0 3 255 3 256 49 -2 50 -3 0 -253z
m-1811 218 c55 -39 76 -99 76 -216 0 -91 -3 -105 -30 -160 -41 -83 -71 -98
-189 -99 l-91 -1 -3 254 -2 253 103 -4 c88 -3 107 -7 136 -27z m327 2 c4 -16
31 -124 60 -241 30 -118 54 -218 54 -223 0 -5 -22 -9 -50 -9 -48 0 -49 1 -59
38 -6 20 -11 43 -11 50 0 10 -16 12 -62 10 l-63 -3 -9 -45 c-5 -25 -10 -47
-12 -49 -2 -2 -22 -4 -46 -4 -54 0 -55 -18 24 276 l61 227 53 0 c50 0 54 -2
60 -27z m257 14 c2 -6 17 -83 33 -170 16 -90 31 -152 36 -144 4 8 17 67 28
133 36 205 29 189 82 192 l46 3 -19 -88 c-11 -48 -37 -162 -57 -253 l-37 -165
-52 -3 c-63 -4 -62 -5 -93 143 -11 55 -33 160 -49 233 l-28 132 52 0 c33 0 55
-5 58 -13z m357 -236 l0 -249 -47 -4 c-27 -3 -51 -3 -56 -1 -4 3 -7 117 -7
254 l1 249 55 0 54 0 0 -249z m193 191 c10 -31 34 -95 52 -142 l34 -85 0 143
1 142 40 0 40 0 0 -250 0 -250 -47 0 -48 0 -39 108 c-22 59 -50 134 -62 167
l-23 60 -1 -166 0 -167 -41 -4 c-22 -2 -42 -2 -45 1 -2 3 -4 116 -4 253 l1
248 62 0 62 0 18 -58z m-793 -503 c34 -13 68 -66 79 -122 10 -54 -2 -67 -58
-67 -27 0 -31 4 -31 26 0 43 -31 85 -60 82 -41 -5 -60 -57 -60 -168 0 -77 4
-101 20 -127 11 -18 27 -33 35 -33 23 0 55 37 62 70 5 28 8 30 55 30 l49 0 -7
-37 c-11 -60 -40 -109 -79 -133 -49 -30 -133 -25 -171 11 -50 46 -67 96 -72
201 -7 154 31 244 113 273 40 14 77 13 125 -6z m370 -8 c67 -48 96 -182 71
-325 -20 -114 -69 -166 -156 -166 -62 0 -99 21 -131 75 -22 39 -27 61 -31 148
-9 173 35 272 128 288 54 9 87 3 119 -20z m358 -6 c57 -34 77 -92 77 -220 0
-99 -3 -115 -27 -165 -37 -76 -66 -91 -184 -96 l-94 -5 0 257 0 256 98 -4 c73
-3 105 -8 130 -23z m402 -20 l0 -45 -85 0 -85 0 0 -55 0 -55 65 0 65 0 0 -45
0 -45 -65 0 -65 0 0 -60 0 -60 86 0 85 0 -3 -47 -3 -48 -105 -3 c-58 -2 -120
0 -138 3 l-34 6 3 237 c2 130 5 243 7 250 3 9 40 12 138 12 l134 0 0 -45z
m-864 -705 c0 -19 2 -47 3 -62 1 -27 3 -28 52 -28 45 0 50 2 44 19 -3 10 1 23
9 30 11 9 16 6 25 -20 23 -66 20 -69 -69 -69 -67 0 -80 3 -80 16 0 12 -3 14
-12 6 -17 -13 -58 3 -58 23 0 14 13 29 55 63 18 15 14 39 -5 34 -19 -4 -42 7
-36 17 4 5 20 9 38 8 29 -2 32 -5 34 -37z m200 -104 c-11 -44 -23 -29 -30 39
-5 45 -3 72 6 88 12 20 13 17 22 -40 5 -34 6 -73 2 -87z m-1556 120 c0 -3 -4
-8 -10 -11 -5 -3 -10 -1 -10 4 0 6 5 11 10 11 6 0 10 -2 10 -4z m-73 -32 c-15
-15 -24 -30 -21 -35 3 -5 -5 -9 -17 -9 -19 0 -20 2 -8 17 20 25 52 52 63 53 5
0 -3 -12 -17 -26z m-117 -24 c0 -5 -4 -10 -10 -10 -5 0 -10 5 -10 10 0 6 5 10
10 10 6 0 10 -4 10 -10z m1868 -15 c17 -37 15 -70 -8 -115 -24 -47 -57 -59
-94 -35 -34 23 -33 36 3 29 18 -4 38 0 55 11 31 20 34 35 7 35 -26 0 -41 22
-34 51 13 54 52 67 71 24z m-1938 -8 c0 -8 -11 -20 -25 -27 -14 -8 -23 -20
-21 -27 3 -7 -1 -13 -9 -13 -18 0 -18 2 -3 35 6 14 19 25 30 25 10 0 18 5 18
10 0 6 2 10 5 10 3 0 5 -6 5 -13z m39 -18 c-16 -10 -23 -4 -14 10 3 6 11 8 17
5 6 -4 5 -9 -3 -15z m187 14 c-11 -11 -46 -14 -46 -3 0 6 12 10 27 10 14 0 23
-3 19 -7z m120 -33 c4 -21 2 -30 -5 -25 -6 3 -11 20 -11 37 0 38 10 31 16 -12z
m1704 14 c19 -49 -14 -124 -55 -124 -22 0 -55 23 -55 39 0 4 15 5 34 3 26 -3
37 1 50 19 14 20 14 25 1 39 -15 17 -11 50 6 50 5 0 14 -12 19 -26z m-1960 5
c0 -8 5 -7 15 1 9 7 19 9 23 5 4 -4 1 -10 -6 -12 -7 -3 -22 -15 -33 -27 l-20
-21 7 30 7 30 -20 -24 c-13 -16 -32 -25 -56 -27 -40 -3 -49 9 -18 25 15 8 20
7 25 -6 6 -15 10 -13 34 10 28 29 42 34 42 16z m80 3 c0 -12 -22 -32 -34 -32
-6 0 -3 5 7 11 9 6 15 14 12 20 -4 5 -1 9 4 9 6 0 11 -4 11 -8z m110 -2 c-8
-5 -22 -10 -30 -10 -13 0 -13 1 0 10 8 5 22 10 30 10 13 0 13 -1 0 -10z m30
-34 c-16 -20 -50 -27 -43 -10 3 7 8 13 11 12 22 -2 32 5 33 25 1 17 2 18 6 4
3 -10 0 -24 -7 -31z m722 24 c16 -5 41 -18 57 -29 16 -12 38 -21 49 -21 10 0
39 -11 63 -24 25 -12 65 -26 90 -30 26 -4 55 -13 65 -21 11 -8 29 -15 41 -15
12 0 24 -4 27 -9 6 -8 83 -26 100 -22 5 1 54 4 110 6 104 5 202 -9 296 -43 25
-9 63 -17 85 -18 34 -1 49 -9 90 -49 28 -26 66 -58 85 -70 50 -31 160 -75 175
-69 7 3 35 -2 62 -11 51 -18 97 -25 151 -25 18 0 47 -6 65 -13 18 -8 51 -14
75 -15 24 -1 51 -7 60 -13 13 -8 7 -9 -25 -5 -23 3 -54 1 -69 -4 -21 -8 -31
-7 -44 5 -11 10 -34 15 -66 14 -30 -1 -72 7 -109 21 -33 13 -76 24 -95 26 -47
3 -89 13 -111 24 -10 6 -29 10 -43 10 -34 0 -75 20 -70 34 6 16 -41 60 -55 52
-6 -4 -16 2 -22 12 -8 13 -19 17 -32 14 -11 -3 -25 1 -31 9 -6 8 -30 21 -53
28 -24 8 -43 17 -43 21 0 4 -33 17 -73 29 -64 19 -94 21 -228 19 -159 -3 -192
3 -274 46 -16 9 -41 16 -53 16 -23 0 -92 27 -102 40 -3 4 -30 14 -60 24 -73
24 -137 53 -146 68 -5 8 -2 9 12 4 10 -5 31 -12 46 -16z m-632 -4 c0 -3 -4 -8
-10 -11 -5 -3 -10 -1 -10 4 0 6 5 11 10 11 6 0 10 -2 10 -4z m240 -6 c0 -5 -5
-10 -11 -10 -5 0 -7 5 -4 10 3 6 8 10 11 10 2 0 4 -4 4 -10z m-380 -14 c0 -3
-4 -8 -10 -11 -5 -3 -10 -1 -10 4 0 6 5 11 10 11 6 0 10 -2 10 -4z m317 -2
c-3 -3 -12 -4 -19 -1 -8 3 -5 6 6 6 11 1 17 -2 13 -5z m-580 -46 c-3 -8 -6 -5
-6 6 -1 11 2 17 5 13 3 -3 4 -12 1 -19z m440 -6 c-10 -10 -15 -22 -12 -25 3
-4 2 -5 -2 -2 -3 3 -12 0 -20 -6 -23 -20 -15 8 9 31 27 25 47 27 25 2z m1293
-36 c0 -9 -11 -13 -30 -12 -36 2 -41 19 -8 27 27 7 38 3 38 -15z m-1816 -2 c3
-8 2 -12 -4 -9 -6 3 -10 10 -10 16 0 14 7 11 14 -7z m271 -3 c3 -5 2 -12 -3
-15 -5 -3 -9 1 -9 9 0 17 3 19 12 6z m175 -51 c-18 -25 -20 -34 -10 -46 7 -8
11 -17 8 -19 -3 -3 -11 2 -18 10 -11 13 -9 24 10 63 13 25 25 41 28 34 2 -6
-6 -25 -18 -42z m-490 30 c0 -5 -2 -10 -4 -10 -3 0 -8 5 -11 10 -3 6 -1 10 4
10 6 0 11 -4 11 -10z m90 0 c0 -5 -2 -10 -4 -10 -3 0 -8 5 -11 10 -3 6 -1 10
4 10 6 0 11 -4 11 -10z m601 -23 c-6 -8 -9 -23 -5 -33 4 -15 4 -16 -4 -5 -9
12 -15 12 -46 -3 -20 -9 -36 -22 -37 -29 0 -8 -2 -9 -5 -1 -3 8 -16 9 -42 3
-48 -11 -52 -11 -52 1 0 6 14 10 31 10 16 0 28 3 26 8 -3 4 9 8 26 9 18 2 33
7 35 12 2 6 10 7 18 4 8 -3 14 0 14 6 0 6 6 11 14 11 8 0 17 7 20 16 4 9 9 14
13 11 3 -4 1 -13 -6 -20z m-284 -19 c-3 -8 -6 -5 -6 6 -1 11 2 17 5 13 3 -3 4
-12 1 -19z m393 18 c0 -3 -4 -8 -10 -11 -5 -3 -10 -1 -10 4 0 6 5 11 10 11 6
0 10 -2 10 -4z m-583 -28 c-3 -8 -6 -5 -6 6 -1 11 2 17 5 13 3 -3 4 -12 1 -19z
m43 1 c0 -4 -7 -6 -15 -3 -8 4 -15 10 -15 15 0 4 7 6 15 3 8 -4 15 -10 15 -15z
m-150 -20 c0 -11 -4 -18 -10 -14 -5 3 -7 12 -3 20 7 21 13 19 13 -6z m950 12
c0 -5 17 -13 38 -19 l37 -10 -35 -1 c-34 -1 -60 13 -60 31 0 4 5 8 10 8 6 0
10 -4 10 -9z m160 5 c0 -3 -4 -8 -10 -11 -5 -3 -10 -1 -10 4 0 6 5 11 10 11 6
0 10 -2 10 -4z m-1237 -21 c-3 -9 -8 -14 -10 -11 -3 3 -2 9 2 15 9 16 15 13 8
-4z m827 -4 c0 -10 -8 -29 -19 -42 l-18 -22 -5 26 c-4 19 -1 27 8 27 8 0 14 7
14 15 0 8 5 15 10 15 6 0 10 -9 10 -19z m75 3 c-13 -14 -14 -19 -3 -25 10 -7
8 -9 -6 -9 -16 0 -17 -2 -5 -17 7 -10 10 -15 5 -11 -12 10 -46 -10 -46 -27 0
-7 -6 -16 -12 -18 -10 -4 -10 -7 -1 -14 9 -6 2 -9 -20 -10 -25 -1 -33 3 -33
17 0 10 6 16 13 13 7 -3 13 0 13 6 0 21 -23 11 -57 -24 l-34 -35 46 2 c25 1
45 6 45 10 0 4 5 8 11 8 5 0 7 -5 4 -11 -4 -6 -1 -10 6 -8 33 4 39 -1 34 -28
-3 -16 -2 -22 1 -15 3 6 13 12 22 12 15 0 15 2 2 10 -12 8 -13 11 -1 19 11 7
11 9 0 13 -8 3 -11 9 -6 13 4 5 19 -2 33 -16 16 -15 27 -20 32 -13 4 6 17 14
30 18 22 7 31 26 12 26 -5 0 -10 5 -10 11 0 5 5 7 12 3 8 -5 9 -2 5 9 -3 9 -2
19 4 22 6 4 8 -11 6 -39 -3 -45 -3 -46 26 -46 21 0 28 4 24 14 -3 8 0 19 7 25
10 9 13 6 10 -14 -2 -24 0 -25 33 -19 35 7 36 6 29 -20 -4 -18 -3 -25 4 -21 5
3 10 14 10 24 0 11 7 18 16 17 20 -1 30 21 12 27 -9 3 -8 4 2 3 8 -1 17 -12
21 -26 5 -17 7 -19 8 -7 1 10 6 15 11 12 6 -3 10 -2 10 3 0 6 -7 13 -16 16 -8
3 -12 10 -9 16 4 6 12 4 21 -5 17 -16 39 -11 28 7 -4 6 -2 8 4 4 6 -3 22 8 36
26 16 20 21 35 14 39 -7 4 -7 9 0 13 18 11 24 -14 12 -47 -7 -18 -24 -42 -37
-53 -16 -14 -21 -24 -14 -28 6 -4 11 -2 11 4 0 7 6 8 18 1 15 -8 18 -6 18 11
-1 16 6 22 27 25 26 4 32 -3 28 -34 -1 -8 5 -10 14 -7 8 3 22 3 31 0 14 -5 14
-7 0 -22 -9 -8 -16 -20 -16 -25 0 -12 17 -12 25 1 3 6 12 10 18 10 7 0 6 -4
-3 -11 -11 -8 -8 -9 15 -5 23 5 26 4 13 -4 -9 -6 -32 -8 -50 -6 -26 4 -37 0
-46 -15 -7 -10 -8 -19 -3 -19 6 0 13 5 16 10 3 6 13 10 21 10 25 0 6 -18 -25
-25 -35 -8 -68 -64 -78 -131 -6 -47 -2 -51 41 -34 14 5 26 6 26 2 0 -4 -19
-15 -42 -23 -30 -11 -44 -22 -46 -37 -2 -13 2 -22 10 -22 8 0 9 -3 3 -8 -5 -4
-16 -17 -22 -29 -11 -20 -11 -21 5 -16 9 4 22 14 29 22 8 10 12 11 13 4 0 -6
-4 -15 -10 -18 -5 -3 -10 -16 -11 -28 0 -12 -3 -17 -6 -10 -7 18 -31 -7 -26
-28 3 -9 -2 -16 -11 -16 -11 0 -13 4 -6 12 12 15 3 25 -23 25 -16 0 -18 -5
-13 -27 5 -21 4 -24 -4 -13 -9 13 -11 13 -20 0 -12 -19 -13 -4 -1 19 7 13 6
18 -4 18 -8 0 -11 -5 -8 -10 4 -6 -2 -8 -15 -5 -14 4 -22 0 -25 -13 -6 -21 9
-26 16 -6 3 8 7 5 13 -7 5 -13 3 -21 -4 -24 -7 -2 -10 -8 -6 -13 3 -5 -2 -9
-10 -9 -9 0 -16 3 -16 8 0 4 -9 13 -21 20 -12 8 -18 9 -14 3 4 -7 -4 -11 -19
-11 -14 0 -26 5 -26 11 0 5 -5 7 -10 4 -6 -4 -8 -11 -5 -16 4 -5 0 -9 -8 -9
-8 0 -18 -11 -21 -24 -5 -19 -11 -23 -36 -20 -17 2 -47 -3 -67 -11 -42 -18
-43 -18 -43 -5 0 6 7 10 15 10 8 0 15 8 15 18 0 11 3 13 8 6 8 -14 46 -2 58
18 6 11 5 11 -8 0 -11 -9 -18 -10 -23 -2 -3 5 -3 10 2 10 4 0 8 17 8 38 0 33
-3 38 -25 40 -18 1 -21 -1 -11 -7 9 -6 11 -16 6 -27 -7 -18 -8 -18 -16 1 -7
15 -8 13 -4 -11 3 -16 2 -41 -4 -55 l-9 -24 -11 28 c-15 38 -14 80 2 96 10 10
9 11 -5 6 -13 -5 -18 -2 -18 8 0 11 7 15 21 12 28 -6 40 2 32 21 -5 13 -8 13
-22 1 -9 -7 -22 -12 -28 -11 -7 1 -18 2 -24 3 -6 0 -8 10 -4 21 4 14 2 20 -9
20 -10 0 -13 -6 -10 -15 4 -8 1 -15 -6 -15 -20 0 -7 54 15 62 15 6 13 7 -7 4
-28 -3 -37 7 -18 19 6 3 10 13 10 21 0 12 -2 12 -14 2 -8 -7 -13 -27 -11 -45
2 -25 0 -29 -10 -20 -7 7 -11 22 -9 35 3 13 1 21 -4 18 -5 -3 -9 -24 -10 -47
-3 -64 -12 -60 -12 4 0 52 2 57 22 57 45 0 8 11 -43 13 -53 2 -54 1 -52 -25 2
-32 -32 -47 -40 -17 -3 11 -1 21 3 24 5 3 11 -3 13 -12 4 -16 5 -16 6 -1 1 24
-15 31 -40 18 -19 -10 -20 -9 -15 8 4 11 2 23 -3 26 -6 4 -8 13 -4 21 3 9 -1
15 -11 15 -9 0 -16 5 -16 10 0 6 -8 10 -19 10 -10 0 -24 7 -32 16 -7 8 -21 13
-31 11 -11 -3 -15 -1 -12 5 4 6 -4 8 -23 4 -24 -6 -31 -3 -43 19 -18 33 -60
35 -60 3 1 -21 2 -21 11 -5 15 25 32 21 24 -5 -6 -19 -5 -21 6 -11 19 18 41
-26 22 -45 -7 -8 -10 -19 -6 -25 5 -8 9 -6 11 6 2 9 8 17 13 17 5 0 9 8 10 18
0 9 3 12 5 5 3 -6 -2 -23 -11 -37 -9 -14 -14 -30 -10 -36 3 -5 1 -10 -4 -10
-6 0 -11 7 -11 15 0 8 -7 15 -15 15 -13 0 -14 4 -5 21 18 32 4 34 -24 4 -30
-32 -33 -47 -8 -39 14 5 15 4 2 -5 -8 -6 -23 -11 -32 -11 -10 0 -18 -8 -18
-17 0 -14 -2 -15 -9 -5 -4 8 -17 13 -27 12 -44 -5 -63 1 -69 21 -4 13 0 27 11
40 9 10 12 19 6 19 -6 0 -9 7 -6 15 4 8 1 15 -5 15 -6 0 -11 -7 -11 -15 0 -8
-5 -15 -11 -15 -7 0 -9 -10 -5 -27 5 -22 4 -25 -5 -13 -8 12 -9 8 -4 -15 4
-16 3 -27 -1 -23 -3 4 -15 3 -25 -3 -22 -12 -26 3 -5 21 8 6 12 19 9 27 -4 9
-2 14 3 11 5 -3 17 9 26 28 15 29 15 34 3 34 -11 0 -10 5 6 21 22 22 39 19 20
-5 -10 -12 -8 -16 8 -21 25 -8 41 1 41 21 0 8 4 13 9 12 15 -5 79 71 86 103 7
30 7 30 -14 12 -22 -18 -28 -29 -11 -18 18 11 11 -15 -10 -38 -18 -18 -22 -20
-30 -7 -9 14 -14 7 -11 -12 1 -10 -7 -10 -28 1 -10 6 -23 6 -32 0 -11 -7 -9
-9 7 -9 17 0 22 -6 20 -25 0 -14 -6 -25 -13 -25 -7 0 -10 6 -7 14 3 8 -4 19
-16 26 -21 11 -21 12 -4 31 9 10 12 19 6 19 -6 0 -16 -8 -21 -17 -10 -19 -11
-23 -12 -50 0 -15 -2 -15 -8 2 -5 11 -7 32 -5 47 l3 28 -22 -20 c-12 -11 -27
-18 -33 -16 -9 3 -8 -3 1 -21 13 -25 12 -27 -18 -43 -18 -9 -34 -15 -36 -13
-8 6 32 42 40 37 5 -3 9 0 9 5 0 6 -2 11 -4 11 -2 0 -12 3 -20 6 -12 5 -15 2
-10 -12 5 -15 4 -16 -5 -8 -10 9 -9 18 3 42 9 17 20 34 26 37 5 3 10 11 10 18
0 6 -17 -8 -38 -31 -41 -45 -60 -55 -42 -22 6 11 16 18 21 14 6 -3 9 6 7 23
-2 22 1 28 14 27 10 -1 18 5 18 13 0 8 4 11 10 8 5 -3 12 6 16 21 5 19 9 22
15 12 7 -10 9 -10 9 3 0 8 9 25 19 36 12 13 18 30 15 44 -2 13 -2 18 2 12 3
-7 13 -13 22 -13 15 0 15 -2 2 -10 -13 -9 -13 -11 0 -20 8 -5 22 -10 30 -10
13 0 13 -2 1 -9 -12 -8 -12 -12 -2 -24 9 -12 9 -16 -1 -19 -10 -4 -10 -9 2
-23 14 -17 13 -18 -2 -12 -10 3 -18 2 -18 -4 0 -6 -5 -7 -11 -3 -7 4 -7 9 -2
13 15 10 10 74 -6 79 -10 3 -12 -2 -8 -19 8 -33 -2 -69 -19 -69 -18 0 -18 9 3
32 9 10 14 21 11 24 -3 3 -12 -2 -19 -11 -8 -8 -20 -22 -27 -30 -17 -19 -15
-36 3 -29 8 4 15 1 15 -6 0 -9 4 -9 12 -2 16 13 70 11 80 -3 7 -9 38 52 38 75
0 5 5 10 10 10 6 0 10 7 10 15 0 8 5 15 10 15 14 0 12 -11 -6 -31 -8 -9 -16
-23 -18 -31 -1 -7 -5 -18 -9 -24 -14 -24 23 -23 47 1 13 13 27 21 30 18 3 -4
6 -1 6 5 0 7 8 12 18 11 10 0 12 -3 5 -6 -18 -7 -16 -33 2 -33 9 0 15 9 15 25
0 19 -5 25 -22 25 -12 0 -18 3 -14 8 4 4 9 5 10 2 2 -3 10 1 19 9 15 12 17 11
17 -8 0 -12 6 -21 15 -21 8 0 15 5 15 10 0 6 7 10 15 10 12 0 10 -9 -10 -40
-23 -36 -23 -39 -6 -28 11 7 22 17 24 23 2 5 2 -3 -1 -19 l-4 -28 48 32 c27
18 55 40 62 48 11 14 12 14 12 -1 0 -9 -4 -17 -10 -17 -5 0 -10 -9 -10 -19 0
-11 -5 -23 -12 -27 -8 -5 -9 -1 -4 12 6 15 5 17 -5 7 -18 -18 1 -33 29 -22 12
4 22 15 22 24 0 8 4 15 9 15 5 0 7 -10 5 -22 -2 -13 -1 -16 2 -8 8 16 24 30
38 30 5 0 3 -6 -3 -14 -10 -11 -9 -14 2 -12 8 1 22 7 30 14 12 10 18 9 32 -4
13 -14 19 -14 28 -4 8 9 8 11 1 7 -7 -4 -14 -1 -17 6 -3 9 2 13 16 12 26 -2
46 21 47 54 0 19 -4 22 -22 17 -13 -3 -31 -6 -41 -6 -12 0 -16 -4 -11 -12 4
-7 4 -10 -1 -6 -4 4 -14 3 -21 -2 -6 -6 -18 -9 -25 -8 -8 2 -13 -5 -13 -14 2
-21 -12 -24 -20 -5 -5 10 -7 10 -12 0 -7 -17 -24 -17 -24 0 0 12 66 43 83 39
4 -1 7 2 7 7 0 5 16 12 36 15 19 4 37 13 40 21 4 10 10 9 25 -6 10 -10 19 -23
19 -28 0 -14 31 -22 45 -11 6 5 16 6 20 2 5 -4 5 1 2 11 -4 9 -2 17 3 17 6 0
10 -6 10 -12 0 -7 5 -5 11 5 5 9 7 22 3 29 -4 7 -3 8 5 4 6 -4 14 0 17 8 3 9
13 16 21 16 12 0 12 -3 -2 -16z m300 6 c-3 -5 -16 -10 -28 -9 -20 1 -20 2 3 9
14 4 26 8 28 9 2 1 0 -3 -3 -9z m-1105 -25 c0 -14 -4 -25 -9 -25 -4 0 -6 11
-3 25 2 14 6 25 8 25 2 0 4 -11 4 -25z m170 10 c0 -8 -4 -15 -8 -15 -5 0 -9 7
-9 15 0 8 4 15 9 15 4 0 8 -7 8 -15z m78 -34 c12 5 22 6 22 2 0 -3 7 0 15 7
12 10 15 10 15 -4 0 -9 7 -16 15 -16 8 0 15 -5 15 -11 0 -6 -9 -8 -21 -4 -32
11 -79 12 -79 3 0 -4 -5 -8 -12 -8 -6 0 -9 3 -5 6 3 4 0 19 -8 35 -21 39 -18
51 3 13 14 -27 21 -30 40 -23z m22 45 c0 -3 -4 -8 -10 -11 -5 -3 -10 -1 -10 4
0 6 5 11 10 11 6 0 10 -2 10 -4z m-348 -43 c-3 -16 -7 -22 -10 -15 -4 13 4 42
11 42 2 0 2 -12 -1 -27z m425 5 c-3 -8 -6 -5 -6 6 -1 11 2 17 5 13 3 -3 4 -12
1 -19z m150 -3 c9 -24 -1 -27 -15 -5 -8 13 -8 20 -2 20 6 0 13 -7 17 -15z
m-362 -4 c3 -5 1 -12 -5 -16 -5 -3 -10 1 -10 9 0 18 6 21 15 7z m719 -6 c3 -8
1 -15 -4 -15 -6 0 -10 7 -10 15 0 8 2 15 4 15 2 0 6 -7 10 -15z m117 -14 c-6
-10 -20 -21 -31 -24 -20 -5 -19 -4 2 19 27 28 43 31 29 5z m-818 -3 c-6 -7
-15 -26 -21 -43 -8 -22 -11 -25 -11 -10 -1 20 24 65 36 65 3 0 1 -6 -4 -12z
m229 -20 c-7 -7 -12 -8 -12 -2 0 14 12 26 19 19 2 -3 -1 -11 -7 -17z m489 3
c-8 -5 -11 -18 -7 -32 3 -13 3 -18 0 -11 -3 6 -13 12 -22 13 -12 0 -13 2 -3 6
11 5 11 7 0 14 -10 6 -7 10 11 17 28 11 42 6 21 -7z m-54 3 c-3 -3 -12 -4 -19
-1 -8 3 -5 6 6 6 11 1 17 -2 13 -5z m-607 -14 c0 -5 -2 -10 -4 -10 -3 0 -8 5
-11 10 -3 6 -1 10 4 10 6 0 11 -4 11 -10z m194 -5 c-4 -8 -11 -15 -16 -15 -6
0 -5 6 2 15 7 8 14 15 16 15 2 0 1 -7 -2 -15z m379 8 c3 -5 -1 -14 -8 -20 -11
-10 -13 -9 -12 7 1 20 12 26 20 13z m-213 -11 c0 -5 -7 -9 -15 -9 -8 0 -15 4
-15 9 0 4 7 8 15 8 8 0 15 -4 15 -8z m385 -2 c-3 -5 -11 -10 -16 -10 -6 0 -7
5 -4 10 3 6 11 10 16 10 6 0 7 -4 4 -10z m-760 -10 c3 -5 2 -10 -4 -10 -5 0
-13 5 -16 10 -3 6 -2 10 4 10 5 0 13 -4 16 -10z m175 -20 c0 -5 -5 -10 -11
-10 -5 0 -7 5 -4 10 3 6 8 10 11 10 2 0 4 -4 4 -10z m480 0 c0 -5 -8 -10 -17
-10 -15 0 -16 2 -3 10 19 12 20 12 20 0z m517 -42 c-3 -8 -6 -5 -6 6 -1 11 2
17 5 13 3 -3 4 -12 1 -19z m-1347 -58 c0 -5 -4 -10 -10 -10 -5 0 -10 5 -10 10
0 6 5 10 10 10 6 0 10 -4 10 -10z m1684 -36 c3 -8 2 -12 -4 -9 -6 3 -10 10
-10 16 0 14 7 11 14 -7z m-60 -11 c-5 -15 -3 -15 11 2 14 17 17 18 25 5 5 -8
10 -19 10 -25 0 -5 -5 -3 -10 5 -8 13 -10 12 -10 -2 0 -21 4 -21 47 -9 24 7
33 6 37 -5 4 -11 -6 -14 -42 -15 -26 -1 -39 -3 -29 -6 9 -2 17 -9 17 -14 0 -5
5 -9 11 -9 5 0 7 5 4 10 -3 6 3 10 14 10 12 0 21 -4 21 -10 0 -13 37 -13 44
-1 4 5 2 11 -3 13 -5 1 -2 10 7 18 14 13 15 12 9 -3 -3 -9 -2 -19 3 -22 6 -4
10 -2 10 2 0 5 9 9 19 9 11 0 18 -4 15 -7 -2 -4 0 -10 5 -13 5 -4 12 2 14 11
3 11 5 6 7 -12 1 -26 3 -27 10 -10 6 16 9 17 14 5 5 -11 18 -15 46 -13 35 2
40 -1 41 -20 1 -21 2 -20 9 3 l8 25 13 -32 c15 -36 39 -44 39 -14 0 11 9 21
23 25 32 8 49 7 42 -3 -3 -5 4 -13 16 -16 16 -5 18 -10 9 -18 -10 -9 -14 -9
-17 1 -3 6 -12 12 -21 12 -10 0 -13 -3 -6 -8 6 -4 7 -17 3 -32 -7 -25 -7 -25
-8 -2 -1 13 -5 20 -11 17 -6 -4 -8 -11 -5 -16 4 -5 -3 -9 -13 -9 -12 0 -22 -9
-25 -21 -3 -12 -10 -18 -16 -14 -7 4 -11 -5 -11 -22 0 -22 -2 -25 -10 -13 -5
8 -10 12 -11 8 -1 -5 -3 -12 -4 -18 -1 -5 -3 -20 -4 -32 -1 -19 -3 -20 -11 -8
-8 13 -10 12 -10 -2 0 -10 5 -18 11 -18 8 0 9 -4 0 -13 -6 -8 -8 -17 -4 -20 3
-4 1 -7 -6 -7 -7 0 -9 -4 -6 -10 3 -5 0 -10 -7 -10 -8 -1 -7 -5 5 -14 13 -10
14 -15 5 -18 -7 -3 -13 -15 -13 -29 -3 -67 -7 -80 -30 -106 -18 -21 -24 -24
-25 -11 0 9 6 19 13 22 9 3 7 9 -5 19 -10 8 -16 16 -13 19 3 2 -2 5 -10 5 -8
0 -15 -6 -15 -14 0 -7 -5 -13 -11 -13 -5 0 -7 6 -3 13 3 6 -15 -12 -41 -41
-26 -29 -49 -51 -51 -49 -7 6 71 130 84 135 8 2 10 -3 5 -14 -4 -11 -3 -15 4
-11 13 8 23 56 13 62 -4 3 -7 27 -6 54 1 28 -1 48 -5 45 -4 -2 -15 11 -25 31
-9 19 -21 32 -27 28 -6 -4 -8 0 -4 10 4 11 2 14 -7 11 -7 -3 -20 1 -28 10 -18
17 -48 23 -65 13 -9 -6 -13 -2 -13 10 -1 17 -1 17 -11 1 -5 -10 -19 -18 -31
-18 -12 0 -18 -5 -15 -13 3 -8 -7 -18 -25 -25 -25 -9 -29 -9 -24 4 4 11 1 11
-19 -2 -26 -17 -34 -8 -12 16 7 8 2 7 -15 -3 -34 -21 -48 -22 -48 -2 0 8 8 15
18 15 9 0 24 5 32 11 13 9 13 10 -2 6 -9 -3 -19 0 -22 8 -6 16 17 38 29 27 5
-4 5 -2 1 5 -3 6 1 14 11 17 10 3 1 4 -20 1 -27 -3 -35 -1 -30 8 4 7 6 22 5
34 -2 14 3 23 15 26 12 3 8 5 -10 6 -16 0 -26 5 -22 11 9 15 66 7 60 -8 -3 -7
0 -10 5 -7 6 3 10 14 10 23 1 21 17 42 50 64 31 21 30 21 24 1z m-1645 -35
c-1 -16 -3 -18 -6 -6 -2 9 -12 19 -21 21 -12 3 -10 5 6 6 17 1 22 -4 21 -21z
m1567 -4 c-9 -9 -20 -14 -23 -10 -4 3 2 13 13 20 25 18 31 12 10 -10z m-1603
-24 c3 -11 2 -20 -3 -20 -4 0 -10 9 -13 20 -3 11 -2 20 3 20 4 0 10 -9 13 -20z
m407 0 c0 -5 -2 -10 -4 -10 -3 0 -8 5 -11 10 -3 6 -1 10 4 10 6 0 11 -4 11
-10z m51 -9 c7 11 9 10 9 -4 0 -20 -22 -19 -26 1 -2 9 -1 9 3 1 4 -8 8 -7 14
2z m-84 -43 c-3 -8 -6 -5 -6 6 -1 11 2 17 5 13 3 -3 4 -12 1 -19z m1863 13 c0
-3 -5 -13 -10 -21 -8 -13 -10 -12 -10 3 0 11 -4 15 -12 11 -6 -4 -8 -3 -5 3 7
10 37 14 37 4z m-1590 -47 c0 -2 -13 -4 -30 -4 -16 0 -30 4 -30 8 0 5 14 7 30
4 17 -2 30 -6 30 -8z m-526 -9 c-4 -8 -8 -15 -10 -15 -2 0 -4 7 -4 15 0 8 4
15 10 15 5 0 7 -7 4 -15z m2096 7 c0 -4 -10 -9 -22 -9 -18 -2 -20 0 -8 7 18
12 30 13 30 2z m-1579 -19 c-11 -5 -11 -7 0 -15 12 -8 12 -9 0 -6 -22 6 -25
28 -4 27 12 0 14 -2 4 -6z m-555 -29 c-4 -9 -9 -15 -11 -12 -3 3 -3 13 1 22 4
9 9 15 11 12 3 -3 3 -13 -1 -22z m451 4 c-3 -8 -6 -5 -6 6 -1 11 2 17 5 13 3
-3 4 -12 1 -19z m733 -88 c0 -5 -4 -10 -10 -10 -5 0 -10 5 -10 10 0 6 5 10 10
10 6 0 10 -4 10 -10z m1078 -2 c7 -7 12 -16 12 -20 0 -10 -60 -7 -66 4 -3 4
-14 3 -24 -2 -11 -6 -29 -15 -40 -20 -23 -12 -26 -5 -7 14 29 30 105 44 125
24z m-588 -21 c18 -3 13 -5 -17 -7 -24 -2 -49 -3 -55 -4 -7 -1 -16 -5 -20 -11
-4 -6 -8 -2 -8 8 0 10 8 17 19 17 11 0 23 5 26 10 4 7 11 8 18 1 7 -5 23 -11
37 -14z m523 -76 c4 -18 14 -32 27 -36 11 -4 20 -15 20 -26 0 -11 -4 -18 -9
-15 -5 4 -12 0 -15 -6 -4 -7 -4 -3 -2 9 3 16 0 20 -11 16 -8 -3 -12 -12 -8
-21 4 -12 3 -12 -9 -3 -8 7 -25 9 -40 5 -21 -5 -28 -1 -37 20 -7 14 -16 26
-21 26 -15 0 19 29 46 39 17 7 26 7 30 -2 2 -7 5 -4 5 6 1 28 18 20 24 -12z
m-1429 4 c-4 -8 -8 -15 -10 -15 -2 0 -4 7 -4 15 0 8 4 15 10 15 5 0 7 -7 4
-15z m1805 -31 c-13 -16 -23 -19 -14 -4 4 6 1 18 -7 27 -12 15 -11 15 10 4 19
-10 21 -15 11 -27z m-1609 14 c0 -7 -4 -19 -9 -27 -7 -10 -10 -10 -16 -1 -4 7
-2 16 5 20 9 6 6 10 -11 13 -23 4 -22 4 4 6 16 0 27 -4 27 -11z m1585 -18 c-3
-5 -1 -11 5 -15 12 -8 13 -55 1 -55 -5 0 -12 6 -14 13 -3 6 -6 2 -6 -11 -1
-13 -5 -20 -11 -17 -5 3 -10 0 -10 -8 0 -8 -7 -20 -15 -27 -11 -9 -15 -9 -15
-1 0 7 -11 0 -25 -15 -14 -15 -25 -33 -25 -40 0 -8 -5 -14 -11 -14 -6 0 -8 9
-4 20 3 11 2 20 -4 20 -5 0 -13 -9 -16 -20 -5 -17 -13 -20 -36 -16 -29 4 -40
-8 -16 -17 7 -3 5 -6 -5 -6 -12 -1 -18 7 -19 22 0 12 -3 16 -6 9 -2 -6 -9 -10
-14 -6 -5 3 -9 0 -9 -5 0 -6 -7 -11 -15 -11 -8 0 -15 5 -15 10 0 6 -4 10 -10
10 -5 0 -7 -8 -4 -17 5 -16 4 -16 -8 -2 -13 16 -54 19 -76 5 -7 -4 -12 -2 -12
7 0 21 12 28 26 16 7 -6 14 -6 18 -1 8 14 -14 20 -51 15 -22 -4 -33 -11 -34
-22 0 -12 -2 -12 -9 4 -15 34 -11 52 13 60 20 6 20 8 3 12 -10 3 -21 1 -25 -4
-3 -5 -24 -10 -46 -11 l-40 -2 30 16 c36 20 123 23 134 5 7 -10 13 -10 30 -2
16 9 21 9 21 -1 0 -8 3 -9 8 -3 4 6 32 12 62 14 30 2 63 8 74 13 13 7 21 7 26
-2 6 -9 13 -9 31 1 15 7 19 14 11 17 -6 2 -12 8 -12 13 0 6 4 8 9 5 5 -3 11 1
14 9 4 9 1 12 -9 8 -18 -7 -18 4 1 23 12 12 15 12 15 2 1 -9 4 -8 13 3 7 9 21
19 32 21 24 5 58 -9 50 -22z m-945 -4 c0 -6 5 -4 10 4 6 10 10 11 10 3 0 -8
16 -13 43 -14 l42 -1 -42 -10 c-24 -5 -43 -13 -43 -18 0 -10 -19 -8 -37 3 -9
6 -13 2 -14 -10 0 -16 -1 -16 -9 2 -14 34 -11 43 13 39 12 -2 16 -2 10 2 -18
8 -16 25 2 18 8 -4 15 -11 15 -18z m187 2 c-3 -8 -6 -5 -6 6 -1 11 2 17 5 13
3 -3 4 -12 1 -19z m479 -14 c-4 -9 -1 -23 5 -30 9 -11 9 -14 0 -14 -6 0 -14 7
-17 15 -7 16 1 45 12 45 3 0 3 -7 0 -16z m-819 -26 c-3 -7 -5 -2 -5 12 0 14 2
19 5 13 2 -7 2 -19 0 -25z m313 -16 c0 -17 -68 -105 -94 -122 -17 -11 -17 -9
2 22 12 19 19 38 15 41 -3 4 1 7 9 7 24 0 51 48 44 78 -6 26 -6 26 9 8 8 -11
15 -26 15 -34z m330 42 c0 -8 -19 -13 -24 -6 -3 5 1 9 9 9 8 0 15 -2 15 -3z
m-1390 -14 c0 -5 -9 -10 -21 -10 -11 0 -17 5 -14 10 3 6 13 10 21 10 8 0 14
-4 14 -10z m775 -10 c3 -5 1 -10 -4 -10 -6 0 -11 5 -11 10 0 6 2 10 4 10 3 0
8 -4 11 -10z m55 6 c0 -2 -7 -7 -16 -10 -8 -3 -12 -2 -9 4 6 10 25 14 25 6z
m570 -10 c0 -3 -4 -8 -10 -11 -5 -3 -10 -1 -10 4 0 6 5 11 10 11 6 0 10 -2 10
-4z m-586 -30 c7 3 18 -7 24 -21 7 -15 8 -25 2 -25 -6 0 -10 7 -10 15 0 8 -5
15 -11 15 -6 0 -8 -9 -3 -22 3 -13 3 -20 -1 -16 -4 4 -16 -2 -26 -14 -11 -11
-19 -16 -19 -10 0 6 -3 19 -6 29 -4 13 -3 15 4 4 7 -9 12 -10 16 -2 9 15 -3
33 -16 25 -6 -4 -5 3 2 16 8 15 15 19 22 12 6 -6 16 -8 22 -6z m303 -58 c-3
-8 -6 -5 -6 6 -1 11 2 17 5 13 3 -3 4 -12 1 -19z m173 -8 c-24 -15 -36 -11
-14 4 10 8 21 12 24 10 2 -3 -2 -9 -10 -14z m-1266 -21 c22 -6 51 -16 64 -22
13 -6 40 -11 60 -10 20 0 42 -3 47 -7 8 -7 67 -17 145 -25 28 -3 65 -18 91
-36 21 -15 40 -18 90 -15 71 5 189 -3 189 -13 0 -4 -60 -6 -132 -6 -106 1
-140 4 -165 18 -18 9 -51 17 -75 17 -48 0 -116 16 -136 33 -7 6 -43 12 -80 14
-37 2 -88 11 -113 19 -81 26 -320 17 -416 -15 -35 -12 -70 -21 -80 -20 -10 1
-1 6 19 13 20 6 40 14 44 19 4 4 20 7 35 7 15 0 31 5 34 10 4 6 23 11 43 10
84 -1 264 8 269 14 9 8 20 8 67 -5z m1191 -14 c-22 -13 -44 -24 -50 -25 -5 0
8 11 30 25 22 13 45 24 50 25 6 0 -8 -11 -30 -25z m115 -45 c0 -5 -2 -10 -4
-10 -3 0 -8 5 -11 10 -3 6 -1 10 4 10 6 0 11 -4 11 -10z m-1857 -16 c6 -7 -59
-44 -77 -44 -5 0 5 11 24 25 36 26 43 29 53 19z m1612 -38 c46 -22 134 -46
168 -46 24 0 28 -3 19 -12 -13 -13 -46 -7 -167 26 -40 12 -76 15 -110 11 -27
-3 -90 -8 -140 -9 l-90 -4 80 7 c44 4 90 13 101 21 29 21 102 24 139 6z
m-1762 -37 c-15 -10 -39 -19 -53 -19 -15 0 -31 -5 -38 -12 -6 -6 -15 -8 -19
-4 -11 10 18 26 48 26 15 0 37 9 50 19 13 11 28 17 32 14 5 -3 -4 -14 -20 -24z
m1427 10 c0 -6 -4 -7 -10 -4 -5 3 -10 11 -10 16 0 6 5 7 10 4 6 -3 10 -11 10
-16z m760 -19 c10 -16 127 -37 181 -32 86 7 116 5 153 -13 19 -9 40 -14 45
-10 6 3 16 3 23 -1 18 -11 67 -17 153 -16 67 1 74 -1 45 -9 -48 -12 -230 -4
-271 13 -19 8 -74 15 -124 17 -108 2 -205 19 -225 39 -11 11 -31 13 -87 9 -42
-3 -73 -2 -73 4 0 5 17 9 38 10 20 1 48 4 62 8 25 8 70 -3 80 -19z m-193 -6
c-3 -3 -12 -4 -19 -1 -8 3 -5 6 6 6 11 1 17 -2 13 -5z m1113 -14 c0 -5 -3 -10
-7 -11 -70 -7 -112 -13 -185 -28 -91 -18 -123 -12 -43 8 98 24 132 31 175 34
25 2 48 4 53 5 4 1 7 -2 7 -8z m-3240 -20 c-8 -6 -24 -9 -35 -9 -15 0 -13 4
10 14 32 14 49 10 25 -5z m2801 -153 c-4 -74 -11 -72 -11 3 0 35 3 60 7 56 4
-3 6 -30 4 -59z m106 16 c-3 -10 -5 -2 -5 17 0 19 2 27 5 18 2 -10 2 -26 0
-35z m-1418 33 c-10 -8 -89 -13 -89 -5 0 5 21 9 47 9 25 0 44 -2 42 -4z m31
-6 c0 -5 -4 -10 -10 -10 -5 0 -10 5 -10 10 0 6 5 10 10 10 6 0 10 -4 10 -10z
m-832 -37 c7 -7 12 -28 10 -45 -2 -26 -8 -33 -25 -34 -12 -1 -20 3 -17 8 3 4
9 6 14 3 14 -9 22 14 16 41 -5 18 -12 24 -22 20 -9 -3 -12 -1 -9 4 9 15 -31
12 -43 -2 -11 -14 -10 -47 2 -66 4 -6 3 -12 -2 -12 -5 0 -14 12 -20 26 -28 59
48 105 96 57z m1863 -14 c6 -11 9 -23 6 -25 -2 -2 -10 7 -17 21 -7 14 -19 25
-27 25 -7 0 -13 5 -13 10 0 16 38 -7 51 -31z m-1139 -1 c-9 -9 -12 -7 -12 12
0 19 3 21 12 12 9 -9 9 -15 0 -24z m105 -165 c-2 -38 -3 -7 -3 67 0 74 1 105
3 68 2 -38 2 -98 0 -135z m958 178 c-3 -6 -11 -11 -17 -11 -6 0 -6 6 2 15 14
17 26 13 15 -4z m-2 -68 c11 -13 15 -23 9 -23 -14 0 -42 40 -41 60 0 13 1 13
6 0 3 -8 15 -25 26 -37z m-1831 20 c-6 -3 -9 -10 -6 -15 4 -7 2 -8 -5 -4 -9 6
-9 11 0 22 6 8 15 12 18 8 3 -4 0 -9 -7 -11z m1898 -23 c0 -5 -5 -10 -11 -10
-5 0 -7 5 -4 10 3 6 8 10 11 10 2 0 4 -4 4 -10z m-1133 -22 c-3 -8 -6 -5 -6 6
-1 11 2 17 5 13 3 -3 4 -12 1 -19z m0 -100 c-2 -13 -4 -5 -4 17 -1 22 1 32 4
23 2 -10 2 -28 0 -40z m1500 5 c-3 -10 -5 -2 -5 17 0 19 2 27 5 18 2 -10 2
-26 0 -35z m-2071 11 c4 -14 2 -30 -3 -35 -5 -5 -9 2 -8 19 0 26 -2 27 -47 26
-27 0 -48 3 -48 8 0 4 22 8 50 8 45 0 50 -2 56 -26z m264 15 c-69 -13 -127
-47 -112 -65 4 -5 0 -3 -8 4 -17 14 -10 22 45 51 23 12 56 21 80 20 l40 -1
-45 -9z m60 -4 c0 -8 -4 -15 -10 -15 -5 0 -7 7 -4 15 4 8 8 15 10 15 2 0 4 -7
4 -15z m840 5 c0 -5 -4 -10 -10 -10 -5 0 -10 5 -10 10 0 6 5 10 10 10 6 0 10
-4 10 -10z m1030 0 c0 -5 -4 -10 -10 -10 -5 0 -10 5 -10 10 0 6 5 10 10 10 6
0 10 -4 10 -10z m103 3 c-7 -2 -21 -2 -30 0 -10 3 -4 5 12 5 17 0 24 -2 18 -5z
m44 1 c-3 -3 -12 -4 -19 -1 -8 3 -5 6 6 6 11 1 17 -2 13 -5z m-2598 -387 c7
-10 26 -17 41 -17 16 0 31 -6 34 -12 5 -10 7 -10 12 0 7 14 24 16 24 2 0 -5
-12 -13 -27 -16 -16 -4 -34 -11 -40 -17 -9 -6 -13 -6 -13 2 0 6 5 11 11 11 5
0 7 5 4 10 -4 7 -13 7 -25 0 -16 -8 -18 -8 -14 5 4 8 1 15 -5 15 -25 0 -33 58
-32 217 2 144 1 162 -13 157 -9 -3 -16 -13 -16 -21 0 -8 -5 -11 -11 -8 -24 16
-46 -24 -47 -86 0 -33 -4 -70 -7 -82 -5 -20 -5 -20 9 2 7 14 12 31 9 38 -3 7
0 13 6 13 13 0 11 -52 -4 -62 -6 -5 -2 -8 9 -8 18 0 17 -11 -1 -12 -4 0 -16
-4 -25 -9 -16 -9 -17 -1 -15 93 l2 103 55 32 55 32 5 -183 c4 -134 9 -187 19
-199z m643 361 c33 -23 68 -89 67 -128 0 -19 -3 -16 -13 15 -7 22 -18 50 -25
63 -11 20 -15 21 -29 11 -14 -11 -15 -11 -4 1 19 22 14 32 -15 27 -16 -2 -22
-2 -15 0 10 4 9 8 -5 19 -31 23 6 16 39 -8z m557 -10 c-2 -30 -2 -30 -6 -6 -4
23 -10 27 -41 31 l-37 4 43 1 c41 2 42 2 41 -30z m631 22 c0 -5 -5 -10 -11
-10 -5 0 -7 5 -4 10 3 6 8 10 11 10 2 0 4 -4 4 -10z m387 -37 c-3 -10 -5 -2
-5 17 0 19 2 27 5 18 2 -10 2 -26 0 -35z m468 37 c8 -13 -5 -13 -25 0 -13 8
-13 10 2 10 9 0 20 -4 23 -10z m-2155 -14 c0 -2 -13 -6 -29 -8 -17 -2 -28 -1
-25 4 5 8 54 12 54 4z m1915 -15 c3 -5 1 -12 -5 -16 -5 -3 -10 1 -10 9 0 18 6
21 15 7z m289 -7 c3 -8 2 -12 -4 -9 -6 3 -10 10 -10 16 0 14 7 11 14 -7z
m-2777 -16 c-3 -8 -6 -5 -6 6 -1 11 2 17 5 13 3 -3 4 -12 1 -19z m1137 7 c-4
-8 -8 -15 -10 -15 -2 0 -4 7 -4 15 0 8 4 15 10 15 5 0 7 -7 4 -15z m654 2 c-9
-7 -18 -31 -21 -53 l-4 -39 -1 42 c-2 31 3 45 16 52 24 14 30 13 10 -2z
m-1178 -17 c0 -5 -2 -10 -4 -10 -3 0 -8 5 -11 10 -3 6 -1 10 4 10 6 0 11 -4
11 -10z m837 -52 c-2 -13 -4 -3 -4 22 0 25 2 35 4 23 2 -13 2 -33 0 -45z m920
0 c-2 -13 -4 -3 -4 22 0 25 2 35 4 23 2 -13 2 -33 0 -45z m-1951 11 c-8 -19
-15 -29 -15 -22 -1 18 19 67 25 61 3 -3 -2 -21 -10 -39z m821 -6 c-3 -10 -5
-2 -5 17 0 19 2 27 5 18 2 -10 2 -26 0 -35z m-940 5 c-3 -7 -5 -2 -5 12 0 14
2 19 5 13 2 -7 2 -19 0 -25z m2237 26 c26 -10 18 -23 -14 -22 -29 1 -37 8 -23
21 8 9 17 9 37 1z m-2587 -26 c-3 -8 -6 -5 -6 6 -1 11 2 17 5 13 3 -3 4 -12 1
-19z m623 12 c0 -5 -4 -10 -10 -10 -5 0 -10 5 -10 10 0 6 5 10 10 10 6 0 10
-4 10 -10z m55 -10 c3 -5 13 -7 23 -4 13 5 14 4 3 -4 -10 -7 -12 -25 -9 -66 3
-31 1 -56 -4 -56 -4 0 -7 3 -7 8 6 36 -4 103 -17 116 -8 9 -11 16 -5 16 5 0
12 -4 16 -10z m242 -72 c-2 -18 -4 -6 -4 27 0 33 2 48 4 33 2 -15 2 -42 0 -60z
m1830 50 c-3 -8 -6 -5 -6 6 -1 11 2 17 5 13 3 -3 4 -12 1 -19z m-2177 2 c0 -5
-2 -10 -4 -10 -3 0 -8 5 -11 10 -3 6 -1 10 4 10 6 0 11 -4 11 -10z m457 -127
c-2 -27 -3 -5 -3 47 0 52 1 74 3 48 2 -27 2 -69 0 -95z m-679 76 c-3 -33 -4
-33 -8 8 -3 23 -2 39 3 34 5 -5 7 -24 5 -42z m-348 37 c0 -3 -4 -8 -10 -11 -5
-3 -10 -1 -10 4 0 6 5 11 10 11 6 0 10 -2 10 -4z m557 -28 c-3 -8 -6 -5 -6 6
-1 11 2 17 5 13 3 -3 4 -12 1 -19z m940 0 c-3 -8 -6 -5 -6 6 -1 11 2 17 5 13
3 -3 4 -12 1 -19z m-990 -10 c-3 -8 -6 -5 -6 6 -1 11 2 17 5 13 3 -3 4 -12 1
-19z m240 -10 c-3 -7 -5 -2 -5 12 0 14 2 19 5 13 2 -7 2 -19 0 -25z m-700 -45
c-2 -16 -4 -5 -4 22 0 28 2 40 4 28 2 -13 2 -35 0 -50z m200 -10 c-2 -16 -4
-5 -4 22 0 28 2 40 4 28 2 -13 2 -35 0 -50z m313 15 c0 -12 -10 -9 -26 6 -20
21 -17 28 6 14 11 -7 20 -16 20 -20z m-113 -45 c-2 -16 -4 -5 -4 22 0 28 2 40
4 28 2 -13 2 -35 0 -50z m-104 -24 c-4 -4 -6 13 -3 39 l5 47 3 -39 c2 -21 0
-42 -5 -47z m574 19 c-2 -13 -4 -3 -4 22 0 25 2 35 4 23 2 -13 2 -33 0 -45z
m1390 25 c-3 -10 -5 -4 -5 12 0 17 2 24 5 18 2 -7 2 -21 0 -30z m220 5 c-3 -8
-6 -5 -6 6 -1 11 2 17 5 13 3 -3 4 -12 1 -19z m-2012 2 c3 -5 1 -10 -4 -10 -6
0 -11 5 -11 10 0 6 2 10 4 10 3 0 8 -4 11 -10z m113 3 c-10 -2 -26 -2 -35 0
-10 3 -2 5 17 5 19 0 27 -2 18 -5z m169 -30 c-3 -10 -5 -4 -5 12 0 17 2 24 5
18 2 -7 2 -21 0 -30z m1043 26 c0 -5 -5 -7 -11 -3 -8 5 -10 -1 -7 -20 3 -14 1
-26 -3 -26 -5 0 -9 14 -9 30 0 20 5 30 15 30 8 0 15 -5 15 -11z m-1303 -21
c-3 -8 -6 -5 -6 6 -1 11 2 17 5 13 3 -3 4 -12 1 -19z m1063 2 c0 -5 -5 -10
-11 -10 -5 0 -7 5 -4 10 3 6 8 10 11 10 2 0 4 -4 4 -10z m-1634 -25 c-14 -14
-16 -14 -16 -2 0 9 6 17 13 20 19 7 21 -1 3 -18z m544 15 c0 -5 -4 -10 -9 -10
-6 0 -13 5 -16 10 -3 6 1 10 9 10 9 0 16 -4 16 -10z m190 0 c0 -5 -5 -10 -11
-10 -5 0 -7 5 -4 10 3 6 8 10 11 10 2 0 4 -4 4 -10z m1827 -27 c-3 -10 -5 -4
-5 12 0 17 2 24 5 18 2 -7 2 -21 0 -30z m-2511 5 c4 -7 3 -8 -5 -4 -20 13 -42
-13 -34 -42 4 -17 2 -23 -6 -18 -16 10 -14 42 5 60 18 19 30 20 40 4z m671 -4
c-3 -3 -12 -4 -19 -1 -8 3 -5 6 6 6 11 1 17 -2 13 -5z m490 -56 c-2 -13 -4 -3
-4 22 0 25 2 35 4 23 2 -13 2 -33 0 -45z m1240 25 c-3 -10 -5 -4 -5 12 0 17 2
24 5 18 2 -7 2 -21 0 -30z m-2177 -17 c-6 -20 -15 -36 -20 -36 -5 0 -2 12 6
28 7 15 14 33 14 41 0 8 3 12 6 8 3 -3 1 -22 -6 -41z m220 30 c0 -8 6 -17 13
-19 6 -3 3 -6 -8 -6 -14 -1 -21 5 -21 19 0 11 4 20 8 20 4 0 8 -6 8 -14z m481
-17 c10 -6 8 -9 -8 -9 -17 0 -23 6 -23 23 0 16 3 18 9 8 5 -7 15 -17 22 -22z
m85 11 c0 -14 -7 -20 -21 -19 -11 0 -14 3 -7 6 6 2 12 11 12 19 0 8 4 14 8 14
4 0 8 -9 8 -20z m-1006 -11 c0 -6 -4 -7 -10 -4 -5 3 -10 11 -10 16 0 6 5 7 10
4 6 -3 10 -11 10 -16z m2300 7 c0 -3 -4 -8 -10 -11 -5 -3 -10 -1 -10 4 0 6 5
11 10 11 6 0 10 -2 10 -4z m220 -6 c0 -5 -4 -10 -10 -10 -5 0 -10 5 -10 10 0
6 5 10 10 10 6 0 10 -4 10 -10z m70 0 c0 -5 -4 -10 -10 -10 -5 0 -10 5 -10 10
0 6 5 10 10 10 6 0 10 -4 10 -10z m-2557 -20 c3 -11 2 -20 -3 -20 -4 0 -10 9
-13 20 -3 11 -2 20 3 20 4 0 10 -9 13 -20z m575 13 c-27 -2 -69 -2 -95 0 -27
2 -5 3 47 3 52 0 74 -1 48 -3z m2085 0 c-7 -2 -21 -2 -30 0 -10 3 -4 5 12 5
17 0 24 -2 18 -5z m-2383 -50 c-11 -17 -11 -17 -6 0 3 10 7 26 7 35 1 15 2 15
6 0 2 -10 -1 -25 -7 -35z m1751 24 c-10 -9 -11 -8 -5 6 3 10 9 15 12 12 3 -3
0 -11 -7 -18z m-2091 -23 c0 -8 3 -13 8 -11 4 3 7 -5 7 -18 0 -16 -3 -20 -11
-14 -15 12 -24 59 -13 59 5 0 9 -7 9 -16z m810 -11 c0 -16 -4 -34 -9 -42 -6
-10 -9 -1 -8 27 2 46 17 59 17 15z m-107 -21 c-9 -25 -24 -32 -63 -30 l-35 1
40 6 c32 5 41 11 43 29 2 12 7 20 12 17 5 -3 6 -13 3 -23z m-389 -17 c-9 -13
-31 -34 -49 -45 -37 -23 -58 -27 -29 -5 15 11 16 15 4 15 -8 1 -4 6 10 11 20
8 22 12 10 19 -8 5 -11 12 -7 16 4 4 14 -1 22 -12 13 -17 17 -17 14 2 -1 8 22
24 34 24 4 0 0 -11 -9 -25z m-205 -4 c11 -7 9 -11 -8 -20 -14 -8 -21 -8 -21
-1 0 5 -4 10 -10 10 -25 0 -6 -22 35 -41 30 -14 54 -19 77 -15 30 6 31 5 8 -5
-33 -14 -74 -5 -126 28 l-43 27 27 12 c34 15 43 16 61 5z m460 -23 c-1 -17 -3
-18 -6 -6 -3 12 -18 18 -51 21 l-47 3 53 2 c48 2 52 0 51 -20z m584 14 c-7 -5
-26 -7 -43 -6 -16 1 -30 -3 -30 -8 0 -6 -6 -5 -15 2 -13 11 -14 10 -9 -6 8
-20 6 -19 -14 7 -11 15 -5 17 55 18 38 0 62 -3 56 -7z m-963 -22 c0 -5 -8 -10
-17 -10 -15 0 -16 2 -3 10 19 12 20 12 20 0z m320 3 c0 -5 -5 -15 -11 -23 -9
-13 -10 -13 -6 2 3 9 1 19 -6 22 -7 2 -4 5 6 5 9 1 17 -2 17 -6z m281 -16
c-10 -9 -11 -8 -5 6 3 10 9 15 12 12 3 -3 0 -11 -7 -18z m-664 7 c-3 -3 -12
-4 -19 -1 -8 3 -5 6 6 6 11 1 17 -2 13 -5z m653 -28 c0 -3 -4 -8 -10 -11 -5
-3 -10 -1 -10 4 0 6 5 11 10 11 6 0 10 -2 10 -4z m685 -14 c-3 -3 -11 0 -18 7
-9 10 -8 11 6 5 10 -3 15 -9 12 -12z m55 8 c0 -5 -5 -10 -11 -10 -5 0 -7 5 -4
10 3 6 8 10 11 10 2 0 4 -4 4 -10z m508 3 c-10 -2 -26 -2 -35 0 -10 3 -2 5 17
5 19 0 27 -2 18 -5z m-1498 -24 c0 -5 -4 -9 -10 -9 -5 0 -10 7 -10 16 0 8 5
12 10 9 6 -3 10 -10 10 -16z m555 11 c3 -5 1 -10 -4 -10 -6 0 -11 5 -11 10 0
6 2 10 4 10 3 0 8 -4 11 -10z m-340 -9 c-11 -10 -93 -27 -84 -18 4 5 32 13 89
26 2 1 0 -3 -5 -8z m-145 -11 c0 -5 -15 -9 -32 -9 l-33 1 30 8 c17 4 31 8 33
9 1 0 2 -3 2 -9z m627 4 c-3 -3 -12 -4 -19 -1 -8 3 -5 6 6 6 11 1 17 -2 13 -5z
m-580 -10 c-3 -3 -12 -4 -19 -1 -8 3 -5 6 6 6 11 1 17 -2 13 -5z m873 -156 c0
-4 -9 -8 -20 -8 -11 0 -20 4 -20 9 0 6 9 9 20 8 11 -1 20 -5 20 -9z m326 -1
c4 -4 -5 -7 -20 -7 -15 0 -25 4 -22 9 7 10 31 9 42 -2z m274 -7 c0 -5 -9 -10
-20 -10 -11 0 -20 5 -20 10 0 6 9 10 20 10 11 0 20 -4 20 -10z m-1349 -50 c10
0 19 7 19 15 0 8 4 15 9 15 13 0 22 -43 11 -54 -10 -10 -97 1 -105 14 -3 4 5
20 17 34 l23 25 3 -24 c2 -17 10 -25 23 -25z m199 14 c0 -8 9 -14 21 -14 11 0
18 4 14 9 -3 5 -1 12 4 16 5 3 14 -3 20 -12 9 -16 10 -16 11 -2 0 21 30 33 44
19 7 -7 4 -10 -9 -10 -23 0 -9 -16 20 -22 39 -9 -33 -28 -106 -28 -53 0 -69 3
-69 14 0 9 7 12 19 9 16 -4 18 0 13 23 -3 19 -1 25 7 20 6 -4 11 -14 11 -22z
m242 -14 c5 0 11 7 14 15 8 19 34 20 34 1 0 -8 13 -16 30 -18 17 -3 30 -1 30
4 0 4 -10 8 -22 9 l-23 0 23 11 c17 9 26 8 40 -5 23 -21 41 -22 48 -2 4 8 12
15 19 15 14 0 26 -33 16 -47 -3 -5 -66 -10 -138 -11 -111 -2 -133 0 -133 13 0
9 6 12 15 9 11 -5 15 1 16 22 0 28 1 28 11 7 6 -13 15 -23 20 -23z m298 20 c0
-25 28 -26 46 -2 13 16 15 16 28 0 15 -21 36 -24 36 -5 0 8 4 7 11 -3 9 -12
12 -13 16 -1 5 11 7 11 14 0 8 -12 11 -11 19 1 10 15 11 12 14 -22 1 -16 -170
-20 -207 -4 -26 10 -27 12 -12 34 20 27 35 28 35 2z m260 10 c0 -5 -4 -10 -10
-10 -5 0 -10 5 -10 10 0 6 5 10 10 10 6 0 10 -4 10 -10z m86 -30 c7 0 18 8 23
18 10 16 12 16 25 0 7 -10 24 -17 37 -17 17 1 19 3 6 6 -21 6 -12 23 12 23 23
0 55 -35 46 -50 -7 -12 -164 -10 -171 2 -3 4 -11 5 -19 2 -24 -10 -31 27 -9
43 17 12 20 11 28 -7 5 -11 15 -20 22 -20z m272 -6 c-2 -11 -11 -18 -20 -16
-10 1 -25 -9 -34 -23 -19 -29 -36 -32 -54 -10 -11 13 -9 15 11 13 20 -3 24 1
22 24 -2 25 1 27 28 21 16 -3 29 -2 28 3 -3 20 2 27 12 17 6 -6 9 -19 7 -29z
m-1248 -13 c0 -35 -23 -56 -47 -45 -16 7 -15 8 5 11 22 4 26 12 23 46 -1 9 3
17 8 17 6 0 11 -13 11 -29z m890 9 c0 -5 -7 -10 -16 -10 -8 0 -12 5 -9 10 3 6
10 10 16 10 5 0 9 -4 9 -10z m200 -51 c0 -5 -4 -9 -10 -9 -5 0 -10 7 -10 16 0
8 5 12 10 9 6 -3 10 -10 10 -16z m-1170 1 c0 -5 -7 -10 -15 -10 -8 0 -15 5
-15 10 0 6 7 10 15 10 8 0 15 -4 15 -10z m210 0 c0 -5 -4 -10 -10 -10 -5 0
-10 5 -10 10 0 6 5 10 10 10 6 0 10 -4 10 -10z"/>
<path d="M3660 5545 c0 -8 4 -15 10 -15 5 0 7 7 4 15 -4 8 -8 15 -10 15 -2 0
-4 -7 -4 -15z"/>
<path d="M3638 5473 c7 -3 16 -2 19 1 4 3 -2 6 -13 5 -11 0 -14 -3 -6 -6z"/>
<path d="M3640 5444 c-17 -9 -20 -14 -9 -14 9 0 22 7 29 15 15 18 13 18 -20
-1z"/>
<path d="M3220 5440 c0 -5 5 -10 10 -10 6 0 10 5 10 10 0 6 -4 10 -10 10 -5 0
-10 -4 -10 -10z"/>
<path d="M1097 4765 c-18 -25 -11 -35 10 -14 8 8 13 8 17 0 4 -6 12 -11 18
-11 6 0 3 10 -8 21 l-19 22 25 -13 c23 -12 24 -12 11 3 -18 23 -33 21 -54 -8z"/>
<path d="M1228 4783 c7 -3 16 -2 19 1 4 3 -2 6 -13 5 -11 0 -14 -3 -6 -6z"/>
<path d="M1112 4731 c2 -7 7 -12 11 -12 12 1 9 15 -3 20 -7 2 -11 -2 -8 -8z"/>
<path d="M1220 4731 c0 -14 18 -23 31 -15 8 4 7 9 -2 15 -18 11 -29 11 -29 0z"/>
<path d="M1463 4787 c4 -11 1 -17 -8 -17 -19 0 -28 -17 -14 -26 8 -4 9 -3 5 4
-4 7 -2 12 5 12 6 0 9 -8 6 -19 -3 -14 0 -19 14 -18 10 1 16 3 14 6 -3 2 5 12
17 22 17 16 18 19 5 19 -10 0 -17 -4 -17 -10 0 -5 -4 -10 -9 -10 -5 0 -7 8 -4
19 3 10 -1 22 -8 27 -9 5 -11 2 -6 -9z"/>
<path d="M3663 4745 c-9 -10 -7 -18 8 -34 12 -12 15 -21 8 -21 -7 0 -9 -3 -6
-7 7 -7 47 25 47 37 0 4 -10 14 -23 23 -18 11 -25 12 -34 2z m38 -19 c5 3 9 0
9 -6 0 -15 -23 -7 -26 8 -1 7 0 8 3 2 2 -5 9 -8 14 -4z"/>
<path d="M3526 4715 c4 -8 11 -15 16 -15 6 0 5 6 -2 15 -7 8 -14 15 -16 15 -2
0 -1 -7 2 -15z"/>
<path d="M3645 4700 c3 -5 8 -10 11 -10 2 0 4 5 4 10 0 6 -5 10 -11 10 -5 0
-7 -4 -4 -10z"/>
<path d="M736 4731 c-4 -7 -5 -15 -2 -18 9 -9 19 4 14 18 -4 11 -6 11 -12 0z"/>
<path d="M730 4693 c5 -2 8 -9 4 -14 -3 -5 0 -9 6 -9 15 0 7 23 -8 26 -7 1 -8
0 -2 -3z"/>
<path d="M1189 4598 c-12 -22 -19 -119 -8 -112 6 3 19 -19 19 -31 0 -2 -15 -7
-34 -11 -19 -3 -37 -12 -40 -19 -3 -8 -13 -11 -25 -8 -12 3 -21 1 -21 -5 0 -5
12 -12 28 -15 19 -4 32 -1 44 13 19 23 33 26 25 6 -3 -8 1 -17 9 -20 8 -3 13
-11 12 -18 -2 -6 6 -13 17 -15 l20 -3 -20 9 c-18 9 -17 10 7 10 15 1 30 7 34
14 4 6 4 9 -1 5 -13 -12 -65 20 -59 37 8 19 24 19 24 0 0 -8 5 -15 10 -15 18
0 10 27 -12 42 -18 12 -20 18 -11 29 6 8 11 30 11 49 -1 19 -3 29 -5 23 -3 -7
-9 -13 -14 -13 -6 0 -7 5 -4 10 3 6 1 10 -5 10 -6 0 -9 4 -5 10 3 5 12 7 20 3
10 -3 15 2 15 16 0 27 -16 27 -31 -1z m21 -79 c0 -5 -4 -9 -10 -9 -5 0 -10 7
-10 16 0 8 5 12 10 9 6 -3 10 -10 10 -16z"/>
<path d="M640 4485 c0 -8 2 -15 4 -15 2 0 6 7 10 15 3 8 1 15 -4 15 -6 0 -10
-7 -10 -15z"/>
<path d="M712 4445 c-11 -12 -10 -15 3 -15 8 0 15 7 15 15 0 18 -2 18 -18 0z"/>
<path d="M790 4452 c0 -5 6 -15 14 -22 8 -6 12 -18 9 -26 -3 -8 -1 -14 5 -14
21 0 18 26 -4 48 -13 12 -24 19 -24 14z"/>
<path d="M1090 4452 c0 -12 19 -26 26 -19 2 2 -2 10 -11 17 -9 8 -15 8 -15 2z"/>
<path d="M865 4440 c-19 -8 -19 -9 3 -9 12 -1 22 4 22 9 0 6 -1 10 -2 9 -2 0
-12 -4 -23 -9z"/>
<path d="M620 4436 c0 -2 7 -6 15 -10 8 -3 15 -1 15 4 0 6 -7 10 -15 10 -8 0
-15 -2 -15 -4z"/>
<path d="M737 4426 c-18 -14 -13 -51 5 -40 6 4 5 10 -3 15 -9 5 -5 10 14 14
15 4 24 11 21 16 -7 12 -16 11 -37 -5z"/>
<path d="M1055 4430 c4 -6 11 -8 16 -5 14 9 11 15 -7 15 -8 0 -12 -5 -9 -10z"/>
<path d="M548 4383 c7 -3 16 -2 19 1 4 3 -2 6 -13 5 -11 0 -14 -3 -6 -6z"/>
<path d="M740 4370 c-9 -6 -10 -10 -3 -10 6 0 15 5 18 10 8 12 4 12 -15 0z"/>
<path d="M810 4369 c0 -5 11 -9 25 -9 14 0 25 2 25 4 0 2 -11 6 -25 8 -14 3
-25 1 -25 -3z"/>
<path d="M893 4373 c9 -2 17 -9 17 -14 0 -5 5 -9 11 -9 8 0 8 5 -1 15 -7 8
-20 14 -29 14 -13 -1 -13 -2 2 -6z"/>
<path d="M350 4240 c-8 -5 -10 -10 -5 -10 6 0 17 5 25 10 8 5 11 10 5 10 -5 0
-17 -5 -25 -10z"/>
<path d="M3521 4564 c0 -11 3 -14 6 -6 3 7 2 16 -1 19 -3 4 -6 -2 -5 -13z"/>
<path d="M3625 4530 c-3 -5 -1 -10 4 -10 6 0 11 5 11 10 0 6 -2 10 -4 10 -3 0
-8 -4 -11 -10z"/>
<path d="M3690 4449 c0 -11 5 -17 10 -14 6 3 10 13 10 21 0 8 -4 14 -10 14 -5
0 -10 -9 -10 -21z"/>
<path d="M3721 4454 c0 -11 3 -14 6 -6 3 7 2 16 -1 19 -3 4 -6 -2 -5 -13z"/>
<path d="M3630 4410 c-12 -8 -12 -10 2 -15 10 -4 23 -5 30 -2 8 3 6 6 -5 6
-10 1 -15 6 -12 11 8 12 4 12 -15 0z"/>
<path d="M3618 4373 c7 -3 16 -2 19 1 4 3 -2 6 -13 5 -11 0 -14 -3 -6 -6z"/>
<path d="M3111 4514 c0 -11 3 -14 6 -6 3 7 2 16 -1 19 -3 4 -6 -2 -5 -13z"/>
<path d="M3230 4209 c0 -5 5 -7 10 -4 6 3 10 8 10 11 0 2 -4 4 -10 4 -5 0 -10
-5 -10 -11z"/>
<path d="M1041 3750 l-2 -160 29 0 c51 0 82 61 82 159 0 105 -30 161 -86 161
-22 0 -22 -2 -23 -160z"/>
<path d="M1423 3818 c-7 -35 -15 -78 -19 -95 -6 -33 -6 -33 33 -33 l40 0 -19
88 c-10 48 -20 91 -21 95 -1 4 -8 -20 -14 -55z"/>
<path d="M1769 3344 c-9 -11 -15 -51 -17 -122 -6 -155 18 -214 73 -178 26 17
35 60 34 166 0 99 -16 144 -50 148 -15 2 -32 -4 -40 -14z"/>
<path d="M2120 3200 l0 -160 24 0 c51 0 76 58 76 173 0 93 -31 147 -84 147
-14 0 -16 -21 -16 -160z"/>
<path d="M1737 2644 c-8 -8 1 -24 14 -24 5 0 9 7 9 15 0 15 -12 20 -23 9z"/>
<path d="M2060 2620 c0 -5 7 -10 16 -10 8 0 12 5 9 10 -3 6 -10 10 -16 10 -5
0 -9 -4 -9 -10z"/>
<path d="M1350 2270 c-8 -5 -10 -10 -5 -10 6 0 17 5 25 10 8 5 11 10 5 10 -5
0 -17 -5 -25 -10z"/>
<path d="M670 2250 c0 -5 5 -10 11 -10 5 0 7 5 4 10 -3 6 -8 10 -11 10 -2 0
-4 -4 -4 -10z"/>
<path d="M432 2210 c0 -14 2 -19 5 -12 2 6 2 18 0 25 -3 6 -5 1 -5 -13z"/>
<path d="M630 2220 c-13 -8 -12 -10 3 -10 9 0 17 5 17 10 0 12 -1 12 -20 0z"/>
<path d="M670 2213 c0 -10 4 -14 8 -8 4 6 11 13 16 18 5 4 2 7 -7 7 -10 0 -17
-8 -17 -17z"/>
<path d="M705 2201 c-10 -16 -25 -27 -32 -24 -7 3 -13 0 -13 -6 0 -6 3 -12 8
-12 33 -6 52 -5 52 2 0 5 -4 9 -10 9 -5 0 -10 5 -10 11 0 5 4 8 9 5 13 -8 31
18 23 31 -5 8 -14 2 -27 -16z"/>
<path d="M740 2220 c0 -5 5 -10 10 -10 6 0 10 5 10 10 0 6 -4 10 -10 10 -5 0
-10 -4 -10 -10z"/>
<path d="M797 2210 c3 -11 7 -20 9 -20 2 0 4 9 4 20 0 11 -4 20 -9 20 -5 0 -7
-9 -4 -20z"/>
<path d="M1020 2220 c20 -13 33 -13 25 0 -3 6 -14 10 -23 10 -15 0 -15 -2 -2
-10z"/>
<path d="M1370 2220 c0 -5 5 -10 10 -10 6 0 10 5 10 10 0 6 -4 10 -10 10 -5 0
-10 -4 -10 -10z"/>
<path d="M110 2205 c-8 -9 -8 -15 -2 -15 12 0 26 19 19 26 -2 2 -10 -2 -17
-11z"/>
<path d="M250 2205 c0 -8 2 -15 4 -15 2 0 6 7 10 15 3 8 1 15 -4 15 -6 0 -10
-7 -10 -15z"/>
<path d="M386 2204 c-10 -27 -7 -32 16 -26 21 5 21 6 2 13 -17 7 -17 8 -1 8
10 1 15 6 12 11 -9 15 -22 12 -29 -6z"/>
<path d="M840 2209 c0 -5 5 -7 10 -4 6 3 10 8 10 11 0 2 -4 4 -10 4 -5 0 -10
-5 -10 -11z"/>
<path d="M976 2196 c-8 -31 -36 -43 -36 -16 0 11 -5 20 -11 20 -6 0 -9 -6 -6
-14 4 -9 -4 -13 -24 -14 -16 0 -29 4 -29 9 0 6 -6 7 -16 1 -10 -5 -32 -6 -53
-1 -49 11 -69 4 -67 -26 1 -18 5 -24 16 -20 10 4 12 3 5 -3 -5 -6 -19 -13 -30
-16 -11 -3 -1 -3 23 -1 33 4 42 2 42 -10 0 -8 -5 -15 -11 -15 -5 0 -8 3 -6 8
3 4 -17 7 -43 7 -26 0 -46 -3 -43 -7 2 -5 13 -8 24 -8 10 0 19 -4 19 -9 0 -14
39 -20 43 -7 3 8 8 8 16 0 19 -17 -14 -41 -34 -24 -12 10 -15 10 -15 -3 0 -8
-6 -18 -12 -20 -7 -3 -1 -6 14 -6 15 -1 30 4 33 9 10 17 25 11 18 -6 -4 -11 1
-22 12 -30 28 -21 35 -17 35 16 0 23 5 31 26 36 16 4 29 1 37 -8 7 -8 19 -18
27 -23 10 -7 10 -4 -2 6 -9 9 -14 19 -11 23 10 10 -29 21 -93 25 -11 0 -21 8
-21 16 0 18 13 20 20 3 3 -7 6 -3 6 9 1 27 19 39 34 24 8 -8 6 -11 -7 -11 -10
0 -16 -6 -13 -12 2 -7 11 -12 21 -10 9 2 16 -2 16 -8 0 -5 8 -10 18 -10 10 0
24 -6 31 -12 10 -11 11 -10 6 3 -5 13 -1 15 19 12 17 -4 26 -1 26 7 0 7 -7 10
-17 6 -9 -4 -20 -1 -25 6 -6 10 -8 10 -8 1 0 -7 -7 -13 -16 -13 -14 0 -14 3
-4 15 11 13 10 14 -3 10 -8 -4 -18 -2 -22 4 -3 6 1 11 10 11 9 0 13 5 10 10
-3 6 -1 10 4 10 6 0 11 -4 11 -10 0 -5 5 -10 11 -10 6 0 8 7 5 16 -3 8 -2 12
4 9 12 -8 60 5 60 16 0 5 -7 6 -15 3 -11 -5 -13 -2 -9 10 3 9 10 16 15 16 5 0
9 7 9 15 0 24 -17 17 -24 -9z m-198 -38 c-9 -7 -3 -8 17 -3 17 3 39 8 50 10
11 2 8 -1 -7 -7 -17 -7 -28 -20 -29 -32 -1 -17 -2 -18 -6 -3 -2 9 -10 17 -17
17 -7 0 -21 7 -32 16 -10 8 -13 13 -6 9 6 -3 12 -2 12 4 0 6 7 8 16 4 13 -5
13 -8 2 -15z m112 -8 c0 -5 -10 -10 -22 -9 -22 0 -22 1 -3 9 11 5 21 9 23 9 1
1 2 -3 2 -9z m-61 -140 c0 -14 -3 -19 -6 -12 -2 6 -9 10 -14 6 -5 -3 -9 2 -9
11 0 9 5 13 10 10 6 -3 10 -1 10 4 0 6 -5 11 -11 11 -5 0 -7 5 -3 11 9 16 24
-10 23 -41z"/>
<path d="M1090 2210 c0 -5 7 -7 15 -4 8 4 15 8 15 10 0 2 -7 4 -15 4 -8 0 -15
-4 -15 -10z"/>
<path d="M1240 2209 c0 -5 5 -7 10 -4 6 3 10 8 10 11 0 2 -4 4 -10 4 -5 0 -10
-5 -10 -11z"/>
<path d="M481 2189 c-13 -11 -20 -23 -16 -27 4 -4 10 -1 12 6 7 19 23 4 17
-16 -5 -14 -4 -15 5 -2 6 8 11 11 11 7 0 -15 38 13 43 33 4 16 0 20 -21 20
-15 -1 -38 -10 -51 -21z m59 -6 c0 -15 -2 -15 -9 -4 -7 11 -10 10 -13 -5 -3
-17 -4 -17 -10 4 -5 17 -2 22 13 22 11 0 19 -7 19 -17z"/>
<path d="M1015 2200 c3 -5 11 -10 16 -10 6 0 7 5 4 10 -3 6 -11 10 -16 10 -6
0 -7 -4 -4 -10z"/>
<path d="M1187 2203 c-4 -3 -7 -22 -7 -42 0 -33 1 -34 16 -15 8 10 13 13 9 7
-3 -7 -1 -13 4 -13 6 0 11 6 11 14 0 8 3 23 6 33 6 15 4 16 -7 6 -18 -18 -32
-16 -25 2 6 16 3 19 -7 8z"/>
<path d="M573 2168 c-2 -18 0 -20 7 -8 12 18 13 30 2 30 -4 0 -9 -10 -9 -22z"/>
<path d="M617 2172 c-10 -11 -13 -23 -8 -31 6 -9 10 -5 15 15 6 22 9 25 17 13
5 -9 9 -9 9 -2 0 21 -17 23 -33 5z"/>
<path d="M1126 2177 c3 -10 9 -15 12 -12 3 3 0 11 -7 18 -10 9 -11 8 -5 -6z"/>
<path d="M355 2164 c9 -9 19 -13 23 -10 3 4 0 11 -8 16 -24 15 -33 11 -15 -6z"/>
<path d="M1014 2168 c-4 -7 -3 -8 4 -4 8 5 12 -1 12 -15 0 -26 12 -18 17 11 3
22 -21 28 -33 8z"/>
<path d="M1062 2130 c1 -27 -1 -52 -7 -54 -5 -3 -2 -5 8 -5 10 -1 17 5 16 12
-1 6 -1 19 1 27 2 23 18 -19 20 -55 2 -29 2 -29 9 -5 4 14 3 31 -2 38 -6 8 -6
12 1 12 5 0 8 9 5 21 -4 14 -12 19 -24 16 -21 -6 -27 19 -7 25 7 3 5 7 -6 11
-16 6 -18 2 -14 -43z"/>
<path d="M1150 2138 c0 -49 5 -47 14 5 4 23 3 37 -4 37 -5 0 -10 -19 -10 -42z"/>
<path d="M390 2162 c0 -5 7 -17 15 -28 14 -19 14 -19 15 2 0 12 -7 24 -15 28
-8 3 -15 2 -15 -2z"/>
<path d="M1100 2160 c0 -5 5 -10 11 -10 5 0 7 5 4 10 -3 6 -8 10 -11 10 -2 0
-4 -4 -4 -10z"/>
<path d="M448 2143 c7 -3 16 -2 19 1 4 3 -2 6 -13 5 -11 0 -14 -3 -6 -6z"/>
<path d="M635 2131 c4 -13 3 -26 -3 -30 -6 -4 -4 -11 4 -19 12 -11 14 -10 14
5 0 15 2 16 10 3 7 -11 10 -12 10 -2 0 8 -10 26 -21 40 -21 26 -21 26 -14 3z"/>
<path d="M650 2146 c0 -2 7 -7 16 -10 8 -3 12 -2 9 4 -6 10 -25 14 -25 6z"/>
<path d="M1132 2120 c0 -19 2 -27 5 -17 2 9 2 25 0 35 -3 9 -5 1 -5 -18z"/>
<path d="M1230 2139 c0 -5 5 -7 10 -4 6 3 10 8 10 11 0 2 -4 4 -10 4 -5 0 -10
-5 -10 -11z"/>
<path d="M300 2136 c0 -2 7 -7 16 -10 8 -3 12 -2 9 4 -6 10 -25 14 -25 6z"/>
<path d="M522 2111 c1 -16 5 -28 9 -26 6 5 0 55 -7 55 -3 0 -3 -13 -2 -29z"/>
<path d="M984 2129 c-3 -6 -2 -15 4 -21 6 -6 11 -2 15 11 5 22 -7 29 -19 10z"/>
<path d="M476 2115 c4 -8 8 -15 10 -15 2 0 4 7 4 15 0 8 -4 15 -10 15 -5 0 -7
-7 -4 -15z"/>
<path d="M955 2120 c3 -5 8 -10 11 -10 2 0 4 5 4 10 0 6 -5 10 -11 10 -5 0 -7
-4 -4 -10z"/>
<path d="M276 2105 c-19 -19 -19 -25 -6 -45 8 -12 10 -9 8 10 -3 22 0 25 27
22 16 -2 28 -2 25 0 -3 2 -12 9 -21 16 -14 10 -20 10 -33 -3z"/>
<path d="M1041 2108 c-1 -12 -6 -15 -18 -11 -15 6 -16 5 -3 -9 13 -14 16 -14
23 -2 5 8 6 20 3 27 -2 7 -5 5 -5 -5z"/>
<path d="M1171 2094 c0 -11 3 -14 6 -6 3 7 2 16 -1 19 -3 4 -6 -2 -5 -13z"/>
<path d="M550 2089 c0 -5 5 -7 10 -4 6 3 10 8 10 11 0 2 -4 4 -10 4 -5 0 -10
-5 -10 -11z"/>
<path d="M1151 2074 c0 -11 3 -14 6 -6 3 7 2 16 -1 19 -3 4 -6 -2 -5 -13z"/>
<path d="M237 2067 c-3 -10 -2 -17 4 -17 6 0 9 -7 5 -15 -3 -10 1 -15 14 -15
10 0 21 -8 23 -17 4 -17 5 -17 6 0 0 9 8 17 16 17 8 0 15 5 15 10 0 6 -13 10
-28 10 -20 0 -32 7 -39 22 -8 19 -10 20 -16 5z"/>
<path d="M1001 2053 c0 -17 -5 -35 -11 -38 -13 -8 -13 -25 1 -25 5 0 8 4 4 9
-3 5 0 11 7 13 9 2 11 14 7 38 l-6 35 -2 -32z"/>
<path d="M665 2060 c3 -5 8 -10 11 -10 2 0 4 5 4 10 0 6 -5 10 -11 10 -5 0 -7
-4 -4 -10z"/>
<path d="M600 2054 c0 -3 7 -12 15 -20 16 -17 18 -14 9 10 -6 15 -24 23 -24
10z"/>
<path d="M640 2055 c-3 -15 1 -59 6 -64 2 -2 13 4 25 14 17 17 22 17 30 5 8
-11 9 -8 5 12 -4 16 -1 28 7 31 9 4 9 6 0 6 -6 1 -15 -3 -18 -9 -9 -14 -42
-12 -48 3 -3 6 -6 8 -7 2z m35 -35 c-3 -5 -10 -10 -16 -10 -5 0 -9 5 -9 10 0
6 7 10 16 10 8 0 12 -4 9 -10z"/>
<path d="M1020 2050 c0 -5 5 -10 10 -10 6 0 10 5 10 10 0 6 -4 10 -10 10 -5 0
-10 -4 -10 -10z"/>
<path d="M1050 2040 c0 -11 5 -20 11 -20 5 0 7 5 3 11 -3 6 0 15 7 20 11 7 10
9 -3 9 -11 0 -18 -8 -18 -20z"/>
<path d="M965 2040 c-3 -6 1 -7 9 -4 18 7 21 14 7 14 -6 0 -13 -4 -16 -10z"/>
<path d="M854 2028 c-5 -7 -2 -9 8 -5 11 4 14 1 11 -12 -3 -11 2 -21 11 -24 9
-4 16 -2 16 2 0 5 -6 12 -12 14 -10 4 -10 6 -1 6 17 1 4 31 -12 31 -8 0 -17
-5 -21 -12z"/>
<path d="M250 2000 c0 -5 5 -10 10 -10 6 0 10 5 10 10 0 6 -4 10 -10 10 -5 0
-10 -4 -10 -10z"/>
<path d="M897 1959 c7 -7 15 -10 18 -7 3 3 -2 9 -12 12 -14 6 -15 5 -6 -5z"/>
<path d="M920 1910 c-9 -6 -10 -10 -3 -10 6 0 15 5 18 10 8 12 4 12 -15 0z"/>
<path d="M1011 1894 c0 -11 3 -14 6 -6 3 7 2 16 -1 19 -3 4 -6 -2 -5 -13z"/>
<path d="M1033 1886 c-1 -12 1 -15 4 -7 5 11 7 11 14 0 6 -10 8 -8 7 7 -2 27
-24 27 -25 0z"/>
<path d="M886 1881 c-4 -5 3 -7 14 -4 23 6 26 13 6 13 -8 0 -17 -4 -20 -9z"/>
<path d="M931 1874 c0 -11 3 -14 6 -6 3 7 2 16 -1 19 -3 4 -6 -2 -5 -13z"/>
<path d="M1170 1840 c0 -5 5 -10 10 -10 6 0 10 5 10 10 0 6 -4 10 -10 10 -5 0
-10 -4 -10 -10z"/>
<path d="M978 1819 c-3 -13 -9 -33 -12 -44 -6 -16 -5 -15 6 3 10 16 17 19 25
11 7 -7 12 -6 17 6 3 9 2 13 -4 10 -6 -4 -14 4 -19 16 l-8 23 -5 -25z"/>
<path d="M1048 1803 c7 -3 16 -2 19 1 4 3 -2 6 -13 5 -11 0 -14 -3 -6 -6z"/>
<path d="M882 1770 c0 -14 2 -19 5 -12 2 6 2 18 0 25 -3 6 -5 1 -5 -13z"/>
<path d="M994 1704 c-18 -14 -18 -15 4 -4 12 6 22 13 22 15 0 8 -5 6 -26 -11z"/>
<path d="M1738 2043 c7 -3 16 -2 19 1 4 3 -2 6 -13 5 -11 0 -14 -3 -6 -6z"/>
<path d="M1835 1990 c3 -5 8 -10 11 -10 2 0 4 5 4 10 0 6 -5 10 -11 10 -5 0
-7 -4 -4 -10z"/>
<path d="M1760 1930 c-9 -6 -10 -10 -3 -10 6 0 15 5 18 10 8 12 4 12 -15 0z"/>
<path d="M1895 1890 c3 -5 8 -10 11 -10 2 0 4 5 4 10 0 6 -5 10 -11 10 -5 0
-7 -4 -4 -10z"/>
<path d="M2650 1680 c-13 -8 -12 -10 3 -10 9 0 17 5 17 10 0 12 -1 12 -20 0z"/>
<path d="M2705 1670 c3 -5 8 -10 11 -10 2 0 4 5 4 10 0 6 -5 10 -11 10 -5 0
-7 -4 -4 -10z"/>
<path d="M2620 1656 c0 -10 28 -13 41 -5 10 6 7 9 -13 9 -16 0 -28 -2 -28 -4z"/>
<path d="M2650 1610 c-9 -6 -10 -10 -3 -10 6 0 15 5 18 10 8 12 4 12 -15 0z"/>
<path d="M2295 1570 c3 -5 8 -10 11 -10 2 0 4 5 4 10 0 6 -5 10 -11 10 -5 0
-7 -4 -4 -10z"/>
<path d="M2270 1560 c0 -5 5 -10 11 -10 5 0 7 5 4 10 -3 6 -8 10 -11 10 -2 0
-4 -4 -4 -10z"/>
<path d="M760 5600 c-8 -5 -10 -10 -5 -10 6 0 17 5 25 10 8 5 11 10 5 10 -5 0
-17 -5 -25 -10z"/>
<path d="M711 5591 c-8 -5 -9 -11 -3 -15 5 -3 12 1 16 9 6 17 6 18 -13 6z"/>
<path d="M447 5563 c3 -7 6 -13 8 -13 2 0 5 6 8 13 3 8 -1 14 -8 14 -7 0 -11
-6 -8 -14z"/>
<path d="M726 5563 c-6 -14 -5 -15 5 -6 7 7 10 15 7 18 -3 3 -9 -2 -12 -12z"/>
<path d="M465 5540 c-4 -6 -12 -7 -18 -4 -7 4 -8 3 -4 -1 13 -15 34 -14 34 1
0 17 -4 18 -12 4z"/>
<path d="M384 5518 l-19 -23 23 19 c21 18 27 26 19 26 -2 0 -12 -10 -23 -22z"/>
<path d="M490 5521 c0 -5 -8 -12 -17 -14 -14 -4 -12 -5 5 -6 13 -1 22 5 22 14
0 8 -2 15 -5 15 -3 0 -5 -4 -5 -9z"/>
<path d="M700 5510 c0 -5 7 -7 15 -4 8 4 15 8 15 10 0 2 -7 4 -15 4 -8 0 -15
-4 -15 -10z"/>
<path d="M630 5499 c0 -5 5 -7 10 -4 6 3 10 8 10 11 0 2 -4 4 -10 4 -5 0 -10
-5 -10 -11z"/>
<path d="M280 5491 c0 -6 4 -13 10 -16 6 -3 7 1 4 9 -7 18 -14 21 -14 7z"/>
<path d="M653 5470 c-26 -31 -28 -40 -12 -40 5 0 8 4 4 9 -3 6 3 15 14 20 10
6 21 17 25 26 9 24 -7 17 -31 -15z"/>
<path d="M586 5455 c4 -8 8 -15 10 -15 2 0 4 7 4 15 0 8 -4 15 -10 15 -5 0 -7
-7 -4 -15z"/>
<path d="M260 5453 c0 -9 25 -32 49 -48 9 -5 12 -4 7 3 -3 5 -3 12 1 15 5 2 3
3 -3 1 -7 -1 -21 6 -33 17 -12 11 -21 16 -21 12z"/>
<path d="M611 5444 c0 -11 3 -14 6 -6 3 7 2 16 -1 19 -3 4 -6 -2 -5 -13z"/>
<path d="M565 5420 c-3 -5 -3 -10 2 -10 4 -1 -3 -8 -17 -16 -14 -8 -17 -13 -7
-10 10 3 22 6 27 6 4 0 10 9 13 20 5 21 -7 28 -18 10z"/>
<path d="M265 5399 c-4 -6 -5 -12 -2 -15 2 -3 7 2 10 11 7 17 1 20 -8 4z"/>
<path d="M160 5389 c0 -5 -6 -7 -12 -3 -9 5 -9 2 1 -9 7 -9 19 -17 25 -16 7 0
7 2 -1 5 -7 3 -9 12 -6 20 3 8 2 14 -1 14 -3 0 -6 -5 -6 -11z"/>
<path d="M580 5375 c-7 -8 -17 -12 -23 -8 -6 4 -7 1 -3 -6 6 -9 13 -8 29 6 12
10 24 19 26 20 2 2 0 3 -6 3 -6 0 -16 -7 -23 -15z"/>
<path d="M282 5334 c10 -10 20 -16 22 -13 3 3 -5 11 -17 18 -21 13 -21 12 -5
-5z"/>
<path d="M510 5342 c0 -5 7 -9 15 -9 8 0 12 4 9 9 -3 4 -9 8 -15 8 -5 0 -9 -4
-9 -8z"/>
<path d="M186 5305 c-3 -8 -1 -15 4 -15 6 0 10 7 10 15 0 8 -2 15 -4 15 -2 0
-6 -7 -10 -15z"/>
<path d="M474 5276 c-10 -8 -17 -16 -14 -19 3 -2 14 4 24 14 23 22 18 25 -10
5z"/>
<path d="M130 5259 c-13 -9 -13 -10 0 -6 8 2 21 -3 28 -12 11 -14 11 -13 2 7
-12 25 -11 25 -30 11z"/>
<path d="M266 5253 c-6 -14 -5 -15 5 -6 7 7 10 15 7 18 -3 3 -9 -2 -12 -12z"/>
<path d="M334 5256 c-3 -8 -13 -12 -25 -9 -10 3 -19 3 -19 0 0 -15 40 -12 54
4 9 11 11 19 6 19 -6 0 -13 -6 -16 -14z"/>
<path d="M376 5255 c-3 -8 -1 -15 4 -15 13 0 22 18 11 24 -5 3 -11 -1 -15 -9z"/>
<path d="M135 5209 c-4 -6 -5 -12 -2 -15 2 -3 7 2 10 11 7 17 1 20 -8 4z"/>
<path d="M220 5209 c0 -5 5 -7 10 -4 6 3 10 8 10 11 0 2 -4 4 -10 4 -5 0 -10
-5 -10 -11z"/>
<path d="M371 5192 c-1 -20 2 -21 19 -12 17 9 20 30 4 30 -3 0 -2 -4 1 -10 3
-5 2 -10 -4 -10 -5 0 -12 6 -14 13 -3 6 -6 2 -6 -11z"/>
<path d="M185 5190 c-3 -5 -1 -10 4 -10 6 0 11 5 11 10 0 6 -2 10 -4 10 -3 0
-8 -4 -11 -10z"/>
<path d="M201 5173 c-7 -8 -11 -16 -8 -19 2 -2 10 2 17 11 17 20 9 27 -9 8z"/>
<path d="M170 5165 c-1 -5 -2 -14 -1 -19 1 -5 -4 -13 -11 -17 -10 -7 -10 -9 0
-9 15 0 26 24 19 42 -3 7 -6 9 -7 3z"/>
<path d="M28 5153 c7 -3 16 -2 19 1 4 3 -2 6 -13 5 -11 0 -14 -3 -6 -6z"/>
<path d="M69 5143 c-13 -16 -12 -17 4 -4 9 7 17 15 17 17 0 8 -8 3 -21 -13z"/>
<path d="M257 5102 c-10 -10 -17 -22 -17 -27 0 -5 9 1 21 14 12 12 19 24 17
27 -3 2 -12 -4 -21 -14z"/>
<path d="M217 5071 c-4 -17 -3 -21 5 -13 5 5 8 16 6 23 -3 8 -7 3 -11 -10z"/>
<path d="M111 5044 c0 -11 3 -14 6 -6 3 7 2 16 -1 19 -3 4 -6 -2 -5 -13z"/>
<path d="M185 5030 c-3 -5 -2 -10 4 -10 5 0 13 5 16 10 3 6 2 10 -4 10 -5 0
-13 -4 -16 -10z"/>
<path d="M106 5005 c4 -8 8 -15 10 -15 2 0 4 7 4 15 0 8 -4 15 -10 15 -5 0 -7
-7 -4 -15z"/>
<path d="M90 4981 c0 -16 41 -34 52 -23 6 6 5 12 -3 17 -8 5 -10 4 -5 -3 11
-18 -10 -14 -28 4 -9 8 -16 11 -16 5z"/>
<path d="M159 4953 c-13 -16 -12 -17 4 -4 9 7 17 15 17 17 0 8 -8 3 -21 -13z"/>
<path d="M83 4928 c1 -15 6 -23 11 -18 4 4 4 16 -2 26 -9 16 -10 14 -9 -8z"/>
<path d="M120 4919 c0 -5 5 -7 10 -4 6 3 10 8 10 11 0 2 -4 4 -10 4 -5 0 -10
-5 -10 -11z"/>
<path d="M89 4883 c-13 -16 -12 -17 4 -4 9 7 17 15 17 17 0 8 -8 3 -21 -13z"/>
</g>
</svg>
