<?xml version="1.0" standalone="no"?>
<!DOCTYPE svg PUBLIC "-//W3C//DTD SVG 20010904//EN"
 "http://www.w3.org/TR/2001/REC-SVG-20010904/DTD/svg10.dtd">
<svg version="1.0" xmlns="http://www.w3.org/2000/svg"
 width="212.000000pt" height="300.000000pt" viewBox="0 0 212.000000 300.000000"
 preserveAspectRatio="xMidYMid meet">
<metadata>
Created by potrace 1.16, written by Peter Selinger 2001-2019
</metadata>
<g transform="translate(0.000000,300.000000) scale(0.100000,-0.100000)"
fill="#000000" stroke="none">
<path d="M0 1500 l0 -1500 1060 0 1060 0 0 1500 0 1500 -490 0 -490 0 5 -322
c4 -209 10 -326 17 -335 7 -9 7 -13 -1 -13 -6 0 -10 -11 -9 -25 1 -14 8 -25
14 -25 8 0 11 -18 9 -55 -2 -30 1 -57 6 -60 5 -4 9 -17 9 -29 0 -19 4 -22 23
-19 20 4 23 0 23 -24 0 -15 4 -45 8 -65 7 -33 12 -38 36 -38 20 0 29 -6 33
-21 4 -16 2 -19 -11 -14 -9 4 -19 7 -22 8 -3 1 -6 -1 -7 -5 -8 -23 0 -35 30
-46 32 -13 32 -13 11 -28 -26 -18 -21 -54 6 -54 10 0 17 -6 16 -12 -6 -30 -43
-78 -71 -92 -20 -10 -24 -15 -12 -15 20 -1 24 -41 5 -41 -8 -1 -6 -6 5 -14 9
-7 16 -22 16 -32 -1 -11 -1 -28 0 -39 1 -17 3 -17 11 -5 8 13 11 12 23 -4 14
-19 16 -19 40 -3 27 17 37 14 37 -15 0 -13 -8 -18 -27 -19 -16 -1 -32 -2 -38
-4 -5 -1 -14 -3 -19 -3 -6 -1 0 -11 12 -22 11 -11 24 -36 28 -55 7 -37 24 -39
24 -2 0 18 4 16 25 -15 14 -20 25 -42 25 -47 0 -6 5 -11 11 -11 5 0 8 -4 4 -9
-3 -5 -25 -7 -49 -5 -47 5 -48 3 -46 -66 1 -82 -5 -135 -18 -148 -7 -8 -9 -19
-5 -25 5 -7 8 -34 8 -62 l0 -50 75 -11 c76 -11 140 -30 140 -43 0 -4 -6 -13
-12 -20 -7 -8 -8 -11 -3 -8 6 3 17 2 25 -4 17 -10 1 -12 -56 -9 -21 1 -33 -4
-38 -15 -3 -9 -11 -13 -16 -10 -6 4 -9 1 -8 -6 2 -8 -14 -15 -44 -20 -26 -4
-60 -17 -75 -29 -16 -12 -29 -17 -31 -11 -5 15 -53 2 -77 -22 -27 -25 -83 -48
-90 -37 -8 13 -35 0 -35 -16 0 -8 -7 -14 -16 -14 -10 0 -14 6 -10 15 3 8 1 15
-4 15 -6 0 -10 -4 -10 -9 0 -6 -9 -9 -19 -8 -10 0 -17 6 -15 12 2 5 -10 16
-27 24 -17 7 -34 23 -39 36 -6 16 -20 24 -49 29 -22 3 -46 12 -53 19 -19 17
-79 36 -108 32 -14 -1 -38 7 -55 20 -16 12 -39 25 -50 29 -16 7 -17 9 -5 14 8
2 28 14 43 25 19 13 44 19 73 19 41 -1 65 16 27 19 -10 1 -25 3 -33 4 -8 1
-21 3 -27 4 -7 0 -13 6 -13 12 0 7 11 9 28 6 29 -6 92 11 92 26 0 4 -4 6 -9 3
-5 -3 -14 1 -20 8 -10 12 -7 15 16 18 16 2 29 9 29 18 1 8 2 21 3 29 1 8 7 11
17 7 14 -5 16 -1 11 31 -4 20 -2 42 4 49 15 19 2 52 -37 91 -28 28 -37 32 -53
23 -11 -5 -28 -10 -37 -10 -14 0 -9 9 20 39 32 33 43 38 79 37 36 -1 42 2 47
24 l6 25 15 -22 c7 -13 18 -23 23 -23 4 0 3 7 -4 15 -7 8 -9 15 -4 15 4 0 3 5
-4 12 -7 7 -12 30 -12 53 l-1 40 -15 -40 c-9 -22 -18 -50 -21 -62 -7 -29 -43
-32 -43 -4 0 10 7 21 15 25 11 4 14 13 9 32 -6 25 -5 25 16 14 21 -11 22 -11
17 11 -4 14 0 27 10 34 14 11 14 14 -3 33 -10 12 -24 22 -31 22 -7 0 -13 4
-13 9 0 5 9 7 20 4 26 -7 26 14 0 22 -22 7 -46 43 -35 53 4 4 12 0 18 -9 8
-14 15 -15 34 -6 23 10 31 27 14 27 -5 0 -13 10 -17 23 -3 12 -12 29 -20 37
-7 9 -16 34 -20 56 -6 38 -4 43 25 63 35 25 43 48 10 31 -11 -7 -23 -9 -26 -6
-3 3 1 8 9 11 10 4 14 14 11 26 -3 11 0 19 7 19 9 0 8 6 -3 18 -21 23 -22 38
-2 46 19 7 19 26 0 26 -8 0 -15 9 -15 20 0 22 16 27 22 8 3 -7 12 -9 22 -5 9
4 14 11 11 17 -3 5 -2 10 4 10 5 0 14 -7 19 -16 7 -12 9 -10 10 13 1 15 6 51
12 78 7 29 14 204 17 423 l5 372 -486 0 -486 0 0 -1500z m260 1300 c0 -5 -2
-10 -4 -10 -3 0 -8 5 -11 10 -3 6 -1 10 4 10 6 0 11 -4 11 -10z m-8 -217 c-6
-2 -9 -10 -6 -15 4 -7 2 -8 -5 -4 -13 9 -5 26 12 25 9 0 8 -2 -1 -6z m1033
-563 c3 -5 2 -10 -4 -10 -5 0 -13 5 -16 10 -3 6 -2 10 4 10 5 0 13 -4 16 -10z
m55 0 c0 -5 -5 -10 -11 -10 -5 0 -7 5 -4 10 3 6 8 10 11 10 2 0 4 -4 4 -10z
m-503 -52 c-3 -8 -6 -5 -6 6 -1 11 2 17 5 13 3 -3 4 -12 1 -19z m-18 -118 c1
-12 -2 -11 -15 2 -11 11 -14 23 -9 35 7 17 8 17 15 -2 5 -11 9 -27 9 -35z
m-132 -172 c-3 -8 -6 -5 -6 6 -1 11 2 17 5 13 3 -3 4 -12 1 -19z m621 3 c3 -8
-1 -12 -9 -9 -7 2 -15 10 -17 17 -3 8 1 12 9 9 7 -2 15 -10 17 -17z m-606 -82
c-23 -9 -27 -3 -12 16 11 13 15 13 21 3 5 -8 2 -15 -9 -19z m98 -53 c0 -7 -24
-1 -45 12 -17 10 -18 13 -5 21 10 7 20 5 32 -9 10 -11 18 -21 18 -24z m620 28
c0 -13 2 -14 21 0 18 12 24 13 35 1 8 -7 14 -19 14 -26 0 -7 -6 -4 -14 7 -13
16 -18 17 -35 7 -29 -18 -41 -16 -41 7 0 11 5 20 10 20 6 0 10 -7 10 -16z
m-697 -9 c4 -8 2 -17 -3 -20 -6 -4 -10 3 -10 14 0 25 6 27 13 6z m-83 -14 c15
-28 12 -48 -6 -48 -11 0 -14 7 -9 25 4 16 1 28 -7 33 -9 6 -10 9 -1 9 7 0 17
-9 23 -19z m110 -52 c0 -6 -4 -7 -10 -4 -5 3 -10 11 -10 16 0 6 5 7 10 4 6 -3
10 -11 10 -16z m693 -4 c4 -8 2 -17 -3 -20 -6 -4 -10 3 -10 14 0 25 6 27 13 6z
m129 -47 c-9 -9 -12 -4 -11 23 0 32 1 33 11 11 8 -17 8 -26 0 -34z m-62 -152
c0 -2 -7 -7 -16 -10 -8 -3 -12 -2 -9 4 6 10 25 14 25 6z m-50 -46 c13 -9 13
-10 0 -9 -8 1 -26 5 -40 9 l-25 8 25 1 c14 0 32 -4 40 -9z m-70 -212 c-32 -12
-51 -3 -20 10 14 5 29 7 34 4 5 -3 -1 -9 -14 -14z m93 -308 c-7 -28 -13 -25
-13 6 0 14 4 23 9 20 5 -3 7 -15 4 -26z m-149 5 c-5 -12 5 -15 54 -15 39 0 62
4 65 13 3 7 6 5 6 -6 1 -16 -8 -18 -81 -15 -70 3 -83 6 -86 21 -3 12 3 17 22
17 18 0 24 -4 20 -15z m196 -20 c0 -29 -8 -32 -26 -7 -19 24 -17 32 6 32 15 0
20 -7 20 -25z m30 0 c0 -14 -4 -25 -9 -25 -4 0 -6 11 -3 25 2 14 6 25 8 25 2
0 4 -11 4 -25z m71 -14 c-7 -5 -10 -14 -7 -20 4 -6 1 -11 -7 -11 -10 0 -13 7
-10 20 3 11 13 20 22 20 13 0 13 -2 2 -9z m-543 -40 c31 -22 28 -21 89 -21 58
0 52 -8 -12 -15 -27 -4 -55 -11 -61 -16 -15 -13 -53 -6 -66 12 -8 11 -9 11 -4
-3 3 -10 1 -18 -3 -18 -5 0 -11 5 -13 12 -2 6 -27 12 -61 13 -77 1 -85 15 -9
15 50 0 66 4 79 20 21 25 28 25 61 1z m327 -41 c-5 -8 -11 -8 -17 -2 -6 6 -7
16 -3 22 5 8 11 8 17 2 6 -6 7 -16 3 -22z m-883 -51 c3 -71 -4 -108 -23 -120
-18 -11 -102 -4 -107 9 -2 6 1 12 7 12 7 0 11 29 11 80 0 62 3 80 14 80 20 0
25 -19 21 -93 -3 -63 -1 -67 19 -67 20 0 21 4 18 85 -3 79 -2 85 16 85 18 0
21 -8 24 -71z m338 51 c0 -10 -9 -24 -20 -30 -25 -14 -26 -26 -1 -33 14 -3 21
-15 23 -43 3 -36 5 -39 33 -39 29 0 30 2 33 53 3 44 6 52 23 52 16 0 19 -7 19
-55 0 -77 -14 -85 -158 -84 -110 1 -113 1 -133 -25 -16 -20 -29 -26 -60 -26
-21 0 -39 5 -39 10 0 6 14 10 30 10 17 0 30 5 30 10 0 6 1 13 3 17 1 3 -9 8
-23 10 -34 5 -61 42 -55 73 9 38 43 61 84 58 36 -3 36 -3 39 -55 l3 -53 65 0
64 0 0 36 c0 35 -1 36 -35 32 -19 -2 -36 1 -38 6 -3 10 91 95 106 96 4 0 7 -9
7 -20z m770 -80 c0 -93 -1 -100 -20 -100 -19 0 -20 7 -20 100 0 93 1 100 20
100 19 0 20 -7 20 -100z m-559 -45 c-2 -85 -9 -100 -53 -110 -21 -6 -28 -3
-28 8 0 8 9 17 20 20 18 5 20 14 20 87 0 78 1 81 22 78 20 -3 21 -8 19 -83z
m139 5 c0 -79 0 -80 25 -80 25 0 25 1 25 80 0 79 0 80 25 80 21 0 25 -5 25
-31 l0 -31 26 31 c31 37 87 44 104 12 15 -28 12 -73 -6 -99 -12 -18 -25 -22
-67 -22 -42 0 -55 -4 -65 -20 -20 -32 -57 -42 -96 -26 -39 16 -46 39 -44 129
1 53 3 57 25 57 22 0 23 -3 23 -80z m330 2 c0 -86 -10 -109 -52 -116 -33 -6
-40 19 -8 27 18 5 20 14 20 86 0 74 2 81 20 81 18 0 20 -7 20 -78z m-293 -14
c-3 -7 -5 -2 -5 12 0 14 2 19 5 13 2 -7 2 -19 0 -25z m-337 12 c0 -5 -5 -10
-11 -10 -5 0 -7 5 -4 10 3 6 8 10 11 10 2 0 4 -4 4 -10z m2 -105 c0 -5 -5 -11
-11 -13 -6 -2 -11 4 -11 13 0 9 5 15 11 13 6 -2 11 -8 11 -13z m56 4 c-2 -6
-8 -10 -13 -10 -5 0 -11 4 -13 10 -2 6 4 11 13 11 9 0 15 -5 13 -11z m977
-182 c14 -11 15 -16 5 -22 -8 -5 -19 -1 -28 11 -13 16 -14 17 -9 2 5 -15 0
-18 -28 -18 -27 0 -35 4 -35 18 0 14 2 15 10 2 6 -9 10 -11 10 -3 0 7 7 10 15
7 8 -4 15 -1 15 5 0 15 22 14 45 -2z m5 -68 c0 6 5 11 10 11 6 0 10 -6 10 -14
0 -10 -13 -14 -45 -14 -25 1 -45 5 -45 10 0 5 4 7 8 4 4 -2 14 -1 22 4 9 5 19
5 27 -2 9 -7 13 -7 13 1z"/>
<path d="M1305 730 c3 -5 8 -10 11 -10 2 0 4 5 4 10 0 6 -5 10 -11 10 -5 0 -7
-4 -4 -10z"/>
<path d="M627 553 c-4 -3 -7 -24 -7 -45 0 -31 3 -38 20 -38 17 0 20 7 20 45 0
43 -14 58 -33 38z"/>
<path d="M1351 525 c-17 -20 -31 -40 -31 -46 0 -6 20 -9 48 -7 l47 3 0 40 c0
53 -23 57 -64 10z m46 -17 c-3 -8 -6 -5 -6 6 -1 11 2 17 5 13 3 -3 4 -12 1
-19z m-23 -3 c-4 -8 -11 -15 -16 -15 -6 0 -5 6 2 15 7 8 14 15 16 15 2 0 1 -7
-2 -15z"/>
<path d="M1286 1784 c-9 -24 -4 -24 18 -3 16 16 17 19 4 19 -9 0 -19 -7 -22
-16z"/>
<path d="M1281 1544 c0 -11 3 -14 6 -6 3 7 2 16 -1 19 -3 4 -6 -2 -5 -13z"/>
<path d="M1276 1488 c-3 -17 -4 -33 -1 -36 3 -3 5 0 5 6 0 20 17 13 23 -8 9
-35 29 -24 22 13 -14 61 -39 75 -49 25z"/>
<path d="M895 1271 c-6 -11 33 -36 42 -27 7 7 -16 36 -28 36 -4 0 -10 -4 -14
-9z"/>
<path d="M1250 1260 c-8 -5 -12 -11 -10 -14 3 -2 14 2 24 10 22 15 10 19 -14
4z"/>
</g>
</svg>
